G04*
G04 #@! TF.GenerationSoftware,Altium Limited,Altium Designer,22.5.1 (42)*
G04*
G04 Layer_Color=8421504*
%FSLAX44Y44*%
%MOMM*%
G71*
G04*
G04 #@! TF.SameCoordinates,C65D4A69-D674-4943-BDF1-1C6FB35B3B05*
G04*
G04*
G04 #@! TF.FilePolarity,Positive*
G04*
G01*
G75*
%ADD10C,0.2000*%
%ADD15R,2.0000X2.4000*%
%ADD16R,0.9000X0.6000*%
%ADD17R,0.6000X0.9000*%
%ADD18R,0.9000X1.7000*%
%ADD19R,1.7000X1.4000*%
%ADD20R,0.4000X1.0000*%
%ADD21R,0.7000X1.3000*%
%ADD22R,1.3000X1.2000*%
%ADD23R,0.7000X2.0000*%
%ADD24R,1.2000X0.3000*%
%ADD25R,1.3000X5.0000*%
%ADD26R,0.3000X1.2000*%
%ADD27R,2.5000X2.0000*%
D10*
X0Y11000D02*
Y889000D01*
Y11000D02*
X11000Y0D01*
X949000D01*
X960000Y11000D01*
Y889000D01*
X949000Y900000D02*
X960000Y889000D01*
X11000Y900000D02*
X949000D01*
X0Y889000D02*
X11000Y900000D01*
D15*
X771000Y440000D02*
D03*
X831000D02*
D03*
D16*
X351000Y300000D02*
D03*
Y316000D02*
D03*
X535000Y504000D02*
D03*
Y488000D02*
D03*
X769000Y654000D02*
D03*
Y638000D02*
D03*
X769000Y604000D02*
D03*
Y620000D02*
D03*
X794000Y638000D02*
D03*
Y654000D02*
D03*
X330000Y300000D02*
D03*
Y316000D02*
D03*
X368000Y300000D02*
D03*
Y316000D02*
D03*
X405840Y300000D02*
D03*
Y316000D02*
D03*
X444000Y300000D02*
D03*
Y316000D02*
D03*
X233000Y647000D02*
D03*
Y663000D02*
D03*
X281000Y647000D02*
D03*
Y663000D02*
D03*
X313000Y316000D02*
D03*
X388840D02*
D03*
Y300000D02*
D03*
X427000Y316000D02*
D03*
Y300000D02*
D03*
X313000D02*
D03*
D17*
X398000Y484000D02*
D03*
X382000D02*
D03*
X396000Y467000D02*
D03*
X412000D02*
D03*
X803000Y563000D02*
D03*
X787000D02*
D03*
X835000D02*
D03*
X819000D02*
D03*
X842000Y480000D02*
D03*
X826000D02*
D03*
D18*
X382000Y505000D02*
D03*
X412000D02*
D03*
D19*
X600000Y195000D02*
D03*
Y151000D02*
D03*
X550000Y195000D02*
D03*
Y151000D02*
D03*
X830000Y195000D02*
D03*
Y151000D02*
D03*
X435000Y195000D02*
D03*
Y151000D02*
D03*
X485000Y195000D02*
D03*
Y151000D02*
D03*
X780000Y195000D02*
D03*
Y151000D02*
D03*
X665000D02*
D03*
Y195000D02*
D03*
X715000Y151000D02*
D03*
Y195000D02*
D03*
D20*
X620000Y320000D02*
D03*
X644000D02*
D03*
X628000D02*
D03*
X636000D02*
D03*
X620000Y302000D02*
D03*
X644000D02*
D03*
X628000D02*
D03*
X636000D02*
D03*
X574000Y320000D02*
D03*
X598000D02*
D03*
X582000D02*
D03*
X590000D02*
D03*
X574000Y302000D02*
D03*
X598000D02*
D03*
X582000D02*
D03*
X590000D02*
D03*
D21*
X383000Y38000D02*
D03*
X363000D02*
D03*
X658000Y847000D02*
D03*
X678000D02*
D03*
X265000Y38000D02*
D03*
X245000D02*
D03*
D22*
X299000Y174000D02*
D03*
Y151250D02*
D03*
X384000D02*
D03*
Y174000D02*
D03*
X657000Y711000D02*
D03*
Y733750D02*
D03*
X742000D02*
D03*
Y711000D02*
D03*
X266000Y174000D02*
D03*
Y151250D02*
D03*
X181000D02*
D03*
Y174000D02*
D03*
X893000Y777250D02*
D03*
Y800000D02*
D03*
X117976Y711000D02*
D03*
Y733750D02*
D03*
X233000Y733750D02*
D03*
Y711000D02*
D03*
X281001Y733750D02*
D03*
Y711000D02*
D03*
D23*
X360400Y135000D02*
D03*
X347700D02*
D03*
X335000D02*
D03*
X322300D02*
D03*
X360400Y192150D02*
D03*
X347700D02*
D03*
X335000D02*
D03*
X322300D02*
D03*
X680600Y750000D02*
D03*
X693300D02*
D03*
X706000D02*
D03*
X718700D02*
D03*
X680600Y692850D02*
D03*
X693300D02*
D03*
X706000D02*
D03*
X718700D02*
D03*
X242400Y135000D02*
D03*
X229700D02*
D03*
X217000D02*
D03*
X204300D02*
D03*
X242400Y192150D02*
D03*
X229700D02*
D03*
X217000D02*
D03*
X204300D02*
D03*
X499900Y520230D02*
D03*
X487200D02*
D03*
X474500D02*
D03*
X461800D02*
D03*
X499900Y577380D02*
D03*
X487200D02*
D03*
X474500D02*
D03*
X461800D02*
D03*
D24*
X423000Y386000D02*
D03*
Y381000D02*
D03*
Y441000D02*
D03*
Y436000D02*
D03*
Y376000D02*
D03*
Y431000D02*
D03*
Y426000D02*
D03*
X538000Y381000D02*
D03*
Y386000D02*
D03*
Y391000D02*
D03*
Y396000D02*
D03*
Y401000D02*
D03*
Y406000D02*
D03*
Y411000D02*
D03*
Y416000D02*
D03*
Y376000D02*
D03*
Y426000D02*
D03*
Y421000D02*
D03*
Y431000D02*
D03*
Y436000D02*
D03*
Y441000D02*
D03*
Y451000D02*
D03*
Y446000D02*
D03*
X423000Y451000D02*
D03*
Y411000D02*
D03*
Y416000D02*
D03*
Y446000D02*
D03*
Y421000D02*
D03*
Y406000D02*
D03*
Y391000D02*
D03*
Y401000D02*
D03*
Y396000D02*
D03*
D25*
X344000Y459900D02*
D03*
Y371000D02*
D03*
D26*
X443000Y356000D02*
D03*
X508000Y471000D02*
D03*
X503000D02*
D03*
X493000D02*
D03*
X488000D02*
D03*
X513000D02*
D03*
X488000Y356000D02*
D03*
X493000D02*
D03*
X483000D02*
D03*
X473000D02*
D03*
X448000D02*
D03*
X453000D02*
D03*
X458000D02*
D03*
X463000D02*
D03*
X468000D02*
D03*
X478000D02*
D03*
X513000D02*
D03*
X503000D02*
D03*
X508000D02*
D03*
X518000D02*
D03*
X483000Y471000D02*
D03*
X478000D02*
D03*
X473000D02*
D03*
X468000D02*
D03*
X463000D02*
D03*
X443000D02*
D03*
X453000D02*
D03*
X448000D02*
D03*
X458000D02*
D03*
X518000D02*
D03*
X498000Y356000D02*
D03*
Y471000D02*
D03*
D27*
X851000Y587375D02*
D03*
Y635000D02*
D03*
M02*
