G04*
G04 #@! TF.GenerationSoftware,Altium Limited,Altium Designer,22.5.1 (42)*
G04*
G04 Layer_Color=16711935*
%FSLAX44Y44*%
%MOMM*%
G71*
G04*
G04 #@! TF.SameCoordinates,C65D4A69-D674-4943-BDF1-1C6FB35B3B05*
G04*
G04*
G04 #@! TF.FilePolarity,Negative*
G04*
G01*
G75*
%ADD10C,0.2000*%
%ADD28R,2.0500X2.4500*%
%ADD29R,0.9500X0.6500*%
%ADD30R,0.6500X0.9500*%
%ADD33R,0.4500X1.0500*%
%ADD34R,0.7500X1.3500*%
%ADD36R,0.7500X2.0500*%
%ADD41C,2.5500*%
G04:AMPARAMS|DCode=42|XSize=2.55mm|YSize=2.55mm|CornerRadius=0.65mm|HoleSize=0mm|Usage=FLASHONLY|Rotation=0.000|XOffset=0mm|YOffset=0mm|HoleType=Round|Shape=RoundedRectangle|*
%AMROUNDEDRECTD42*
21,1,2.5500,1.2500,0,0,0.0*
21,1,1.2500,2.5500,0,0,0.0*
1,1,1.3000,0.6250,-0.6250*
1,1,1.3000,-0.6250,-0.6250*
1,1,1.3000,-0.6250,0.6250*
1,1,1.3000,0.6250,0.6250*
%
%ADD42ROUNDEDRECTD42*%
G04:AMPARAMS|DCode=43|XSize=2.55mm|YSize=2.55mm|CornerRadius=0.65mm|HoleSize=0mm|Usage=FLASHONLY|Rotation=90.000|XOffset=0mm|YOffset=0mm|HoleType=Round|Shape=RoundedRectangle|*
%AMROUNDEDRECTD43*
21,1,2.5500,1.2500,0,0,90.0*
21,1,1.2500,2.5500,0,0,90.0*
1,1,1.3000,0.6250,0.6250*
1,1,1.3000,0.6250,-0.6250*
1,1,1.3000,-0.6250,-0.6250*
1,1,1.3000,-0.6250,0.6250*
%
%ADD43ROUNDEDRECTD43*%
%ADD44R,2.0500X2.0500*%
%ADD45C,3.0500*%
%ADD46C,2.0500*%
%ADD47C,1.6500*%
G04:AMPARAMS|DCode=48|XSize=1.65mm|YSize=1.65mm|CornerRadius=0.425mm|HoleSize=0mm|Usage=FLASHONLY|Rotation=180.000|XOffset=0mm|YOffset=0mm|HoleType=Round|Shape=RoundedRectangle|*
%AMROUNDEDRECTD48*
21,1,1.6500,0.8000,0,0,180.0*
21,1,0.8000,1.6500,0,0,180.0*
1,1,0.8500,-0.4000,0.4000*
1,1,0.8500,0.4000,0.4000*
1,1,0.8500,0.4000,-0.4000*
1,1,0.8500,-0.4000,-0.4000*
%
%ADD48ROUNDEDRECTD48*%
%ADD49C,1.5500*%
%ADD50R,1.5500X1.5500*%
%ADD51C,3.5500*%
G04:AMPARAMS|DCode=52|XSize=1.65mm|YSize=1.65mm|CornerRadius=0.425mm|HoleSize=0mm|Usage=FLASHONLY|Rotation=270.000|XOffset=0mm|YOffset=0mm|HoleType=Round|Shape=RoundedRectangle|*
%AMROUNDEDRECTD52*
21,1,1.6500,0.8000,0,0,270.0*
21,1,0.8000,1.6500,0,0,270.0*
1,1,0.8500,-0.4000,-0.4000*
1,1,0.8500,-0.4000,0.4000*
1,1,0.8500,0.4000,0.4000*
1,1,0.8500,0.4000,-0.4000*
%
%ADD52ROUNDEDRECTD52*%
%ADD53C,1.3500*%
%ADD54C,6.3500*%
%ADD55C,0.6500*%
%ADD91R,0.6500X0.4500*%
%ADD92R,1.0500X1.0500*%
%ADD93R,1.0500X1.0500*%
%ADD94R,2.3300X2.0800*%
%ADD95R,0.4500X0.6500*%
%ADD96R,1.2500X1.4500*%
%ADD97R,2.5500X3.5500*%
%ADD98R,2.8500X5.4500*%
%ADD99R,3.0500X2.0500*%
%ADD100R,1.4500X1.7500*%
G04:AMPARAMS|DCode=101|XSize=0.65mm|YSize=0.95mm|CornerRadius=0.175mm|HoleSize=0mm|Usage=FLASHONLY|Rotation=180.000|XOffset=0mm|YOffset=0mm|HoleType=Round|Shape=RoundedRectangle|*
%AMROUNDEDRECTD101*
21,1,0.6500,0.6000,0,0,180.0*
21,1,0.3000,0.9500,0,0,180.0*
1,1,0.3500,-0.1500,0.3000*
1,1,0.3500,0.1500,0.3000*
1,1,0.3500,0.1500,-0.3000*
1,1,0.3500,-0.1500,-0.3000*
%
%ADD101ROUNDEDRECTD101*%
%ADD102R,1.0500X1.3500*%
%ADD103R,1.0500X2.2500*%
G04:AMPARAMS|DCode=104|XSize=2.55mm|YSize=3.25mm|CornerRadius=0mm|HoleSize=0mm|Usage=FLASHONLY|Rotation=180.000|XOffset=0mm|YOffset=0mm|HoleType=Round|Shape=Octagon|*
%AMOCTAGOND104*
4,1,8,0.6375,-1.6250,-0.6375,-1.6250,-1.2750,-0.9875,-1.2750,0.9875,-0.6375,1.6250,0.6375,1.6250,1.2750,0.9875,1.2750,-0.9875,0.6375,-1.6250,0.0*
%
%ADD104OCTAGOND104*%

D10*
X0Y11000D02*
Y889000D01*
Y11000D02*
X11000Y0D01*
X949000D01*
X960000Y11000D01*
Y889000D01*
X949000Y900000D02*
X960000Y889000D01*
X11000Y900000D02*
X949000D01*
X0Y889000D02*
X11000Y900000D01*
D28*
X824000Y733000D02*
D03*
X884000D02*
D03*
D29*
X475500Y536230D02*
D03*
Y552230D02*
D03*
X351000Y316000D02*
D03*
Y300000D02*
D03*
X313000Y316000D02*
D03*
Y300000D02*
D03*
X535000Y488000D02*
D03*
Y504000D02*
D03*
X591000Y165000D02*
D03*
Y181000D02*
D03*
X609000D02*
D03*
Y165000D02*
D03*
X541000Y181000D02*
D03*
Y165000D02*
D03*
X559000D02*
D03*
Y181000D02*
D03*
X299000Y135000D02*
D03*
Y151000D02*
D03*
X821000Y181000D02*
D03*
Y165000D02*
D03*
X839000D02*
D03*
Y181000D02*
D03*
X426000D02*
D03*
Y165000D02*
D03*
X444000D02*
D03*
Y181000D02*
D03*
X476000Y165000D02*
D03*
Y181000D02*
D03*
X494000D02*
D03*
Y165000D02*
D03*
X771000Y181000D02*
D03*
Y165000D02*
D03*
X789000D02*
D03*
Y181000D02*
D03*
X427000Y300000D02*
D03*
Y316000D02*
D03*
X389000Y300000D02*
D03*
Y316000D02*
D03*
X724000Y165000D02*
D03*
X706000Y181000D02*
D03*
X117976Y727000D02*
D03*
Y711000D02*
D03*
X450702Y300000D02*
D03*
Y316000D02*
D03*
X893000Y777250D02*
D03*
Y793250D02*
D03*
X458500Y552230D02*
D03*
Y536230D02*
D03*
X581000Y696000D02*
D03*
X674000Y181000D02*
D03*
X562000Y696000D02*
D03*
X656000Y165000D02*
D03*
X724000Y181000D02*
D03*
X706000Y165000D02*
D03*
X61000Y742000D02*
D03*
Y758000D02*
D03*
X742000Y734000D02*
D03*
X181000Y151000D02*
D03*
X581000Y680000D02*
D03*
X562000D02*
D03*
X742000Y750000D02*
D03*
X181000Y135000D02*
D03*
X674000Y165000D02*
D03*
X656000Y181000D02*
D03*
X504702Y300000D02*
D03*
Y316000D02*
D03*
D30*
X743760Y362850D02*
D03*
X759760D02*
D03*
X389000Y556000D02*
D03*
X405000D02*
D03*
X372000Y135000D02*
D03*
X388000D02*
D03*
X787000Y563000D02*
D03*
X803000D02*
D03*
X819000D02*
D03*
X835000D02*
D03*
X702000D02*
D03*
X686000D02*
D03*
X718000D02*
D03*
X734000D02*
D03*
X379000Y441000D02*
D03*
X363000D02*
D03*
X379000Y390000D02*
D03*
X363000D02*
D03*
X653000Y750000D02*
D03*
X270000Y135000D02*
D03*
X669000Y750000D02*
D03*
X254000Y135000D02*
D03*
X485702Y277000D02*
D03*
X469702D02*
D03*
X487227Y321575D02*
D03*
X468177D02*
D03*
X477702Y293000D02*
D03*
X468177D02*
D03*
X431000Y353000D02*
D03*
X447000D02*
D03*
X440000Y411000D02*
D03*
X456000D02*
D03*
D33*
X644000Y320000D02*
D03*
X620000D02*
D03*
X636000D02*
D03*
X628000D02*
D03*
X644000Y302000D02*
D03*
X620000D02*
D03*
X636000D02*
D03*
X628000D02*
D03*
X598000Y320000D02*
D03*
X574000D02*
D03*
X590000D02*
D03*
X582000D02*
D03*
X598000Y302000D02*
D03*
X574000D02*
D03*
X590000D02*
D03*
X582000D02*
D03*
D34*
X382500Y38082D02*
D03*
X362500D02*
D03*
X678500Y846918D02*
D03*
X658500D02*
D03*
X244500Y38082D02*
D03*
X264500D02*
D03*
D36*
X819050Y640575D02*
D03*
X793650D02*
D03*
X780950D02*
D03*
X819050Y583425D02*
D03*
X793650D02*
D03*
X780950D02*
D03*
X806350Y640575D02*
D03*
Y583425D02*
D03*
D41*
X830000Y60000D02*
D03*
X715000D02*
D03*
X600000D02*
D03*
X485000D02*
D03*
X900000Y175000D02*
D03*
X789200Y820000D02*
D03*
X330000D02*
D03*
X279200D02*
D03*
X380800D02*
D03*
X114200D02*
D03*
X215800D02*
D03*
X165000D02*
D03*
X174000Y556000D02*
D03*
Y356000D02*
D03*
D42*
X779200Y60000D02*
D03*
X664200D02*
D03*
X549200D02*
D03*
X434200D02*
D03*
X840000Y820000D02*
D03*
D43*
X900000Y124200D02*
D03*
D44*
X616200Y733000D02*
D03*
D45*
Y860000D02*
D03*
X540000D02*
D03*
X438400D02*
D03*
D46*
Y733000D02*
D03*
D47*
X309000Y83001D02*
D03*
X329000D02*
D03*
X349000D02*
D03*
X340000Y38000D02*
D03*
X300000D02*
D03*
X320000D02*
D03*
X127000Y67000D02*
D03*
Y127000D02*
D03*
Y107000D02*
D03*
Y87000D02*
D03*
X721000Y847000D02*
D03*
X741000D02*
D03*
X701000D02*
D03*
X202000Y38000D02*
D03*
X182000D02*
D03*
X222000D02*
D03*
X732000Y801999D02*
D03*
X712000D02*
D03*
X692000D02*
D03*
X191000Y83001D02*
D03*
X211000D02*
D03*
X231000D02*
D03*
X40000Y742000D02*
D03*
Y762000D02*
D03*
X325000Y735000D02*
D03*
X365000D02*
D03*
Y715000D02*
D03*
X345000Y735000D02*
D03*
Y715000D02*
D03*
D48*
X369000Y83001D02*
D03*
X672000Y801999D02*
D03*
X251000Y83001D02*
D03*
X325000Y715000D02*
D03*
D49*
X705760Y333150D02*
D03*
Y307750D02*
D03*
Y358550D02*
D03*
D50*
Y383950D02*
D03*
D51*
X933575Y733000D02*
D03*
X778000D02*
D03*
D52*
X127000Y147000D02*
D03*
X40000Y722000D02*
D03*
D53*
X344000Y440800D02*
D03*
Y390000D02*
D03*
D54*
X922317Y656000D02*
D03*
Y244000D02*
D03*
X36317D02*
D03*
Y656000D02*
D03*
X51300Y88100D02*
D03*
X908600Y850100D02*
D03*
X51300Y824700D02*
D03*
X908600Y50000D02*
D03*
D55*
X910000Y750000D02*
D03*
X924999Y600000D02*
D03*
Y540000D02*
D03*
Y480000D02*
D03*
Y420000D02*
D03*
X910000Y390000D02*
D03*
X924999Y360000D02*
D03*
X910000Y330000D02*
D03*
X924999Y300000D02*
D03*
Y180000D02*
D03*
Y120000D02*
D03*
X910000Y90000D02*
D03*
X880000Y690000D02*
D03*
X895000Y540000D02*
D03*
Y480000D02*
D03*
Y420000D02*
D03*
Y360000D02*
D03*
Y300000D02*
D03*
X880000Y150000D02*
D03*
Y90000D02*
D03*
X850000Y870000D02*
D03*
X865000Y840000D02*
D03*
X850000Y690000D02*
D03*
X865000Y420000D02*
D03*
X850000Y330000D02*
D03*
Y270000D02*
D03*
Y90000D02*
D03*
X865000Y60000D02*
D03*
X850000Y30000D02*
D03*
X820000Y870000D02*
D03*
X835000Y840000D02*
D03*
X820000Y390000D02*
D03*
X835000Y360000D02*
D03*
X820000Y330000D02*
D03*
X835000Y300000D02*
D03*
X820000Y90000D02*
D03*
Y30000D02*
D03*
X790000Y870000D02*
D03*
Y510000D02*
D03*
Y390000D02*
D03*
X805000Y360000D02*
D03*
Y300000D02*
D03*
X790000Y90000D02*
D03*
X805000Y60000D02*
D03*
X790000Y30000D02*
D03*
X760000Y870000D02*
D03*
Y390000D02*
D03*
X775000Y360000D02*
D03*
Y240000D02*
D03*
X760000Y90000D02*
D03*
Y30000D02*
D03*
X730000Y870000D02*
D03*
Y390000D02*
D03*
X745000Y240000D02*
D03*
X730000Y90000D02*
D03*
X745000Y60000D02*
D03*
X730000Y30000D02*
D03*
X700000Y870000D02*
D03*
Y510000D02*
D03*
X715000Y480000D02*
D03*
X700000Y450000D02*
D03*
Y90000D02*
D03*
Y30000D02*
D03*
X670000Y870000D02*
D03*
Y510000D02*
D03*
X685000Y480000D02*
D03*
X670000Y450000D02*
D03*
X685000Y420000D02*
D03*
Y240000D02*
D03*
Y60000D02*
D03*
X670000Y30000D02*
D03*
X640000Y690000D02*
D03*
X655000Y660000D02*
D03*
Y600000D02*
D03*
Y480000D02*
D03*
X640000Y450000D02*
D03*
X655000Y420000D02*
D03*
X640000Y390000D02*
D03*
X655000Y360000D02*
D03*
Y300000D02*
D03*
X640000Y90000D02*
D03*
Y30000D02*
D03*
X610000Y750000D02*
D03*
X625000Y600000D02*
D03*
X610000Y570000D02*
D03*
X625000Y540000D02*
D03*
X610000Y510000D02*
D03*
Y450000D02*
D03*
X625000Y420000D02*
D03*
X610000Y330000D02*
D03*
Y270000D02*
D03*
Y90000D02*
D03*
X625000Y60000D02*
D03*
X610000Y30000D02*
D03*
X595000Y600000D02*
D03*
Y540000D02*
D03*
Y240000D02*
D03*
X580000Y90000D02*
D03*
Y30000D02*
D03*
X550000Y570000D02*
D03*
X565000Y540000D02*
D03*
X550000Y510000D02*
D03*
X565000Y240000D02*
D03*
X550000Y30000D02*
D03*
X520000Y750000D02*
D03*
Y690000D02*
D03*
X535000Y660000D02*
D03*
X520000Y630000D02*
D03*
X535000Y240000D02*
D03*
X520000Y90000D02*
D03*
Y30000D02*
D03*
X490000Y750000D02*
D03*
X505000Y720000D02*
D03*
Y240000D02*
D03*
Y60000D02*
D03*
X490000Y30000D02*
D03*
X460000Y750000D02*
D03*
Y690000D02*
D03*
Y90000D02*
D03*
Y30000D02*
D03*
X430000Y630000D02*
D03*
Y30000D02*
D03*
X400000Y690000D02*
D03*
X415000Y600000D02*
D03*
X400000Y570000D02*
D03*
X415000Y60000D02*
D03*
X400000Y30000D02*
D03*
X370000Y570000D02*
D03*
Y210000D02*
D03*
X385000Y60000D02*
D03*
X355000Y600000D02*
D03*
X340000Y570000D02*
D03*
Y510000D02*
D03*
X310000Y690000D02*
D03*
X325000Y600000D02*
D03*
X310000Y570000D02*
D03*
Y510000D02*
D03*
X325000Y480000D02*
D03*
X310000Y450000D02*
D03*
X325000Y420000D02*
D03*
X310000Y390000D02*
D03*
X325000Y360000D02*
D03*
X310000Y210000D02*
D03*
X295000Y600000D02*
D03*
X280000Y570000D02*
D03*
X295000Y540000D02*
D03*
X280000Y510000D02*
D03*
Y450000D02*
D03*
Y390000D02*
D03*
Y330000D02*
D03*
Y30000D02*
D03*
X250000Y690000D02*
D03*
Y630000D02*
D03*
X265000Y600000D02*
D03*
X250000Y570000D02*
D03*
X265000Y540000D02*
D03*
X250000Y510000D02*
D03*
X265000Y480000D02*
D03*
X250000Y450000D02*
D03*
X265000Y420000D02*
D03*
X250000Y390000D02*
D03*
X265000Y360000D02*
D03*
X250000Y330000D02*
D03*
Y210000D02*
D03*
X220000Y690000D02*
D03*
Y630000D02*
D03*
X235000Y600000D02*
D03*
X220000Y570000D02*
D03*
X235000Y540000D02*
D03*
X220000Y510000D02*
D03*
X235000Y480000D02*
D03*
X220000Y450000D02*
D03*
X235000Y420000D02*
D03*
X220000Y390000D02*
D03*
X235000Y360000D02*
D03*
X220000Y330000D02*
D03*
X190000Y750000D02*
D03*
Y690000D02*
D03*
Y630000D02*
D03*
X205000Y600000D02*
D03*
X190000Y570000D02*
D03*
X205000Y540000D02*
D03*
X190000Y510000D02*
D03*
X205000Y480000D02*
D03*
X190000Y450000D02*
D03*
X205000Y420000D02*
D03*
Y300000D02*
D03*
X160000Y750000D02*
D03*
Y690000D02*
D03*
Y630000D02*
D03*
X175000Y600000D02*
D03*
X160000Y570000D02*
D03*
Y510000D02*
D03*
X175000Y480000D02*
D03*
X160000Y450000D02*
D03*
X175000Y420000D02*
D03*
Y300000D02*
D03*
X160000Y270000D02*
D03*
Y30000D02*
D03*
X130000Y690000D02*
D03*
Y630000D02*
D03*
X145000Y600000D02*
D03*
X130000Y570000D02*
D03*
X145000Y540000D02*
D03*
X130000Y510000D02*
D03*
X145000Y480000D02*
D03*
X130000Y450000D02*
D03*
X145000Y420000D02*
D03*
X130000Y390000D02*
D03*
Y330000D02*
D03*
X145000Y300000D02*
D03*
X130000Y270000D02*
D03*
X145000Y240000D02*
D03*
X130000Y210000D02*
D03*
X100000Y630000D02*
D03*
X115000Y600000D02*
D03*
X100000Y570000D02*
D03*
X115000Y540000D02*
D03*
X100000Y510000D02*
D03*
X115000Y480000D02*
D03*
X100000Y450000D02*
D03*
X115000Y420000D02*
D03*
X100000Y390000D02*
D03*
X115000Y360000D02*
D03*
X100000Y330000D02*
D03*
X115000Y300000D02*
D03*
X100000Y270000D02*
D03*
X115000Y240000D02*
D03*
X100000Y30000D02*
D03*
X70000Y870000D02*
D03*
Y690000D02*
D03*
X85000Y660000D02*
D03*
X70000Y630000D02*
D03*
X85000Y600000D02*
D03*
X70000Y570000D02*
D03*
X85000Y540000D02*
D03*
X70000Y510000D02*
D03*
X85000Y480000D02*
D03*
X70000Y450000D02*
D03*
X85000Y420000D02*
D03*
X70000Y390000D02*
D03*
X85000Y360000D02*
D03*
X70000Y330000D02*
D03*
X85000Y300000D02*
D03*
X70000Y270000D02*
D03*
X85000Y240000D02*
D03*
X70000Y210000D02*
D03*
X85000Y180000D02*
D03*
Y60000D02*
D03*
X70000Y30000D02*
D03*
X40000Y870000D02*
D03*
X55000Y780000D02*
D03*
Y600000D02*
D03*
X40000Y570000D02*
D03*
X55000Y540000D02*
D03*
X40000Y510000D02*
D03*
X55000Y480000D02*
D03*
X40000Y450000D02*
D03*
X55000Y420000D02*
D03*
X40000Y390000D02*
D03*
X55000Y360000D02*
D03*
X40000Y330000D02*
D03*
X55000Y300000D02*
D03*
Y180000D02*
D03*
X40000Y150000D02*
D03*
Y30000D02*
D03*
D91*
X694000Y728000D02*
D03*
Y719000D02*
D03*
Y710000D02*
D03*
Y719000D02*
D03*
X380000Y175000D02*
D03*
Y166000D02*
D03*
X262000Y175000D02*
D03*
Y166000D02*
D03*
X380000D02*
D03*
Y157000D02*
D03*
X262000Y166000D02*
D03*
Y157000D02*
D03*
X361000Y157000D02*
D03*
Y166000D02*
D03*
X500500Y539230D02*
D03*
Y548230D02*
D03*
X148000Y138000D02*
D03*
Y147000D02*
D03*
X680000Y719000D02*
D03*
Y728000D02*
D03*
X243000Y166000D02*
D03*
Y157000D02*
D03*
D92*
X762760Y322530D02*
D03*
Y342850D02*
D03*
X740662Y332690D02*
D03*
X335000Y110000D02*
D03*
X312902Y99840D02*
D03*
Y120160D02*
D03*
X371098Y99840D02*
D03*
Y120160D02*
D03*
X349000Y110000D02*
D03*
X669902Y785160D02*
D03*
Y764840D02*
D03*
X692000Y775000D02*
D03*
X253098Y99840D02*
D03*
Y120160D02*
D03*
X231000Y110000D02*
D03*
X706000Y775000D02*
D03*
X728098Y785160D02*
D03*
Y764840D02*
D03*
X217000Y110000D02*
D03*
X194902Y99840D02*
D03*
Y120160D02*
D03*
D93*
X600000Y129000D02*
D03*
X589840Y151098D02*
D03*
X610160D02*
D03*
X589840Y194902D02*
D03*
X610160D02*
D03*
X600000Y217000D02*
D03*
X550000Y129000D02*
D03*
X539840Y151098D02*
D03*
X560160D02*
D03*
X539840Y194902D02*
D03*
X560160D02*
D03*
X550000Y217000D02*
D03*
X424840Y194902D02*
D03*
X445160D02*
D03*
X435000Y217000D02*
D03*
X830000Y129000D02*
D03*
X819840Y151098D02*
D03*
X840160D02*
D03*
X819840Y194902D02*
D03*
X840160D02*
D03*
X830000Y217000D02*
D03*
X445160Y151098D02*
D03*
X424840D02*
D03*
X435000Y129000D02*
D03*
X495160Y151098D02*
D03*
X474840D02*
D03*
X485000Y129000D02*
D03*
X474840Y194902D02*
D03*
X495160D02*
D03*
X485000Y217000D02*
D03*
X780000Y129000D02*
D03*
X769840Y151098D02*
D03*
X790160D02*
D03*
X769840Y194902D02*
D03*
X790160D02*
D03*
X780000Y217000D02*
D03*
X715000D02*
D03*
X725160Y194902D02*
D03*
X704840D02*
D03*
X665000Y217000D02*
D03*
X675160Y194902D02*
D03*
X654840D02*
D03*
X572000Y643000D02*
D03*
X561840Y665098D02*
D03*
X582160D02*
D03*
X561840Y710902D02*
D03*
X582160D02*
D03*
X572000Y733000D02*
D03*
X665000Y129000D02*
D03*
X654840Y151098D02*
D03*
X675160D02*
D03*
X715000Y129000D02*
D03*
X704840Y151098D02*
D03*
X725160D02*
D03*
D94*
X487000Y380000D02*
D03*
Y431000D02*
D03*
D95*
X522000Y373000D02*
D03*
X513000D02*
D03*
X448000D02*
D03*
X439000D02*
D03*
X522000Y454000D02*
D03*
X513000D02*
D03*
X439000D02*
D03*
X448000D02*
D03*
X439000Y391000D02*
D03*
X448000D02*
D03*
D96*
X100000Y147000D02*
D03*
Y124000D02*
D03*
D97*
X107000Y192000D02*
D03*
X151450D02*
D03*
D98*
X865000Y491000D02*
D03*
X767000D02*
D03*
D99*
X800000Y612000D02*
D03*
D100*
X520000Y733000D02*
D03*
X476000D02*
D03*
D101*
X487227Y293000D02*
D03*
D102*
X725000Y589000D02*
D03*
X695000D02*
D03*
D103*
X710000Y593500D02*
D03*
D104*
Y619000D02*
D03*
M02*
