G04*
G04 #@! TF.GenerationSoftware,Altium Limited,Altium Designer,22.5.1 (42)*
G04*
G04 Layer_Physical_Order=1*
G04 Layer_Color=255*
%FSLAX44Y44*%
%MOMM*%
G71*
G04*
G04 #@! TF.SameCoordinates,C65D4A69-D674-4943-BDF1-1C6FB35B3B05*
G04*
G04*
G04 #@! TF.FilePolarity,Positive*
G04*
G01*
G75*
%ADD10C,0.2000*%
%ADD12C,0.2500*%
%ADD15R,2.0000X2.4000*%
%ADD16R,0.9000X0.6000*%
%ADD17R,0.6000X0.9000*%
%ADD18R,0.9000X1.7000*%
%ADD19R,1.7000X1.4000*%
%ADD20R,0.4000X1.0000*%
%ADD21R,0.7000X1.3000*%
%ADD22R,1.3000X1.2000*%
%ADD23R,0.7000X2.0000*%
%ADD24R,1.2000X0.3000*%
%ADD25R,1.3000X5.0000*%
%ADD26R,0.3000X1.2000*%
%ADD27R,2.5000X2.0000*%
%ADD56C,0.3000*%
%ADD57C,0.5000*%
%ADD58C,0.7000*%
%ADD59C,2.5000*%
G04:AMPARAMS|DCode=60|XSize=2.5mm|YSize=2.5mm|CornerRadius=0.625mm|HoleSize=0mm|Usage=FLASHONLY|Rotation=0.000|XOffset=0mm|YOffset=0mm|HoleType=Round|Shape=RoundedRectangle|*
%AMROUNDEDRECTD60*
21,1,2.5000,1.2500,0,0,0.0*
21,1,1.2500,2.5000,0,0,0.0*
1,1,1.2500,0.6250,-0.6250*
1,1,1.2500,-0.6250,-0.6250*
1,1,1.2500,-0.6250,0.6250*
1,1,1.2500,0.6250,0.6250*
%
%ADD60ROUNDEDRECTD60*%
G04:AMPARAMS|DCode=61|XSize=2.5mm|YSize=2.5mm|CornerRadius=0.625mm|HoleSize=0mm|Usage=FLASHONLY|Rotation=90.000|XOffset=0mm|YOffset=0mm|HoleType=Round|Shape=RoundedRectangle|*
%AMROUNDEDRECTD61*
21,1,2.5000,1.2500,0,0,90.0*
21,1,1.2500,2.5000,0,0,90.0*
1,1,1.2500,0.6250,0.6250*
1,1,1.2500,0.6250,-0.6250*
1,1,1.2500,-0.6250,-0.6250*
1,1,1.2500,-0.6250,0.6250*
%
%ADD61ROUNDEDRECTD61*%
%ADD62R,2.0000X2.0000*%
%ADD63C,3.0000*%
%ADD64C,2.0000*%
%ADD65C,1.6000*%
G04:AMPARAMS|DCode=66|XSize=1.6mm|YSize=1.6mm|CornerRadius=0.4mm|HoleSize=0mm|Usage=FLASHONLY|Rotation=180.000|XOffset=0mm|YOffset=0mm|HoleType=Round|Shape=RoundedRectangle|*
%AMROUNDEDRECTD66*
21,1,1.6000,0.8000,0,0,180.0*
21,1,0.8000,1.6000,0,0,180.0*
1,1,0.8000,-0.4000,0.4000*
1,1,0.8000,0.4000,0.4000*
1,1,0.8000,0.4000,-0.4000*
1,1,0.8000,-0.4000,-0.4000*
%
%ADD66ROUNDEDRECTD66*%
%ADD67C,1.5000*%
%ADD68R,1.5000X1.5000*%
%ADD69C,3.5000*%
G04:AMPARAMS|DCode=70|XSize=1.6mm|YSize=1.6mm|CornerRadius=0.4mm|HoleSize=0mm|Usage=FLASHONLY|Rotation=270.000|XOffset=0mm|YOffset=0mm|HoleType=Round|Shape=RoundedRectangle|*
%AMROUNDEDRECTD70*
21,1,1.6000,0.8000,0,0,270.0*
21,1,0.8000,1.6000,0,0,270.0*
1,1,0.8000,-0.4000,-0.4000*
1,1,0.8000,-0.4000,0.4000*
1,1,0.8000,0.4000,0.4000*
1,1,0.8000,0.4000,-0.4000*
%
%ADD70ROUNDEDRECTD70*%
%ADD71C,1.3000*%
%ADD72C,6.3000*%
%ADD73C,0.6000*%
G36*
X950000Y880000D02*
Y745726D01*
X948730Y745272D01*
X947430Y746855D01*
X944461Y749292D01*
X941073Y751103D01*
X937398Y752218D01*
X933575Y752594D01*
X929752Y752218D01*
X926077Y751103D01*
X922689Y749292D01*
X919720Y746855D01*
X917283Y743886D01*
X915472Y740498D01*
X914899Y738608D01*
X847000D01*
X844854Y738181D01*
X843035Y736965D01*
X790035Y683965D01*
X788819Y682146D01*
X788392Y680000D01*
Y675314D01*
X787219Y674828D01*
X786523Y675523D01*
X785366Y676297D01*
X784000Y676569D01*
X765000D01*
X763634Y676297D01*
X762477Y675523D01*
X744477Y657523D01*
X743703Y656366D01*
X743431Y655000D01*
Y631000D01*
X743703Y629634D01*
X744477Y628477D01*
X755477Y617477D01*
X756634Y616703D01*
X758000Y616431D01*
X762500D01*
Y615000D01*
X775500D01*
Y625000D01*
X762500D01*
Y623569D01*
X759478D01*
X750569Y632478D01*
Y653522D01*
X766478Y669431D01*
X781736D01*
X781861Y669221D01*
X781061Y668086D01*
X781000Y668098D01*
X779049Y667710D01*
X777395Y666605D01*
X777243Y666377D01*
X771800D01*
X770434Y666106D01*
X769276Y665332D01*
X766477Y662533D01*
X765703Y661375D01*
X765431Y660009D01*
Y659000D01*
X762500D01*
Y649000D01*
X775500D01*
Y659000D01*
X776671Y659240D01*
X777627D01*
X779049Y658290D01*
X781000Y657902D01*
X782951Y658290D01*
X784605Y659395D01*
X785710Y661049D01*
X786098Y663000D01*
X785835Y664322D01*
X787005Y664948D01*
X788392Y663561D01*
Y663000D01*
X788819Y660854D01*
X789209Y660270D01*
X788747Y659000D01*
X787500D01*
Y649000D01*
X800500D01*
Y659000D01*
X799253D01*
X798791Y660270D01*
X799181Y660854D01*
X799608Y663000D01*
Y677677D01*
X849323Y727392D01*
X914899D01*
X915472Y725502D01*
X917283Y722114D01*
X919720Y719145D01*
X922689Y716708D01*
X926077Y714897D01*
X929752Y713782D01*
X933575Y713406D01*
X937398Y713782D01*
X941073Y714897D01*
X944461Y716708D01*
X947430Y719145D01*
X948730Y720728D01*
X950000Y720274D01*
Y677125D01*
X948730Y676657D01*
X946078Y679761D01*
X942069Y683186D01*
X937573Y685941D01*
X932701Y687959D01*
X927574Y689190D01*
X922317Y689604D01*
X917060Y689190D01*
X911933Y687959D01*
X907061Y685941D01*
X902566Y683186D01*
X898556Y679761D01*
X895131Y675752D01*
X892376Y671256D01*
X890358Y666384D01*
X889127Y661257D01*
X888714Y656000D01*
X889127Y650743D01*
X890358Y645616D01*
X892376Y640744D01*
X895131Y636248D01*
X898556Y632239D01*
X902566Y628814D01*
X907061Y626059D01*
X911933Y624041D01*
X917060Y622810D01*
X922317Y622396D01*
X927574Y622810D01*
X932701Y624041D01*
X937573Y626059D01*
X942069Y628814D01*
X946078Y632239D01*
X948730Y635343D01*
X950000Y634875D01*
Y265125D01*
X948730Y264657D01*
X946078Y267761D01*
X942069Y271186D01*
X937573Y273941D01*
X932701Y275959D01*
X927574Y277190D01*
X922317Y277604D01*
X917060Y277190D01*
X911933Y275959D01*
X907061Y273941D01*
X902566Y271186D01*
X898556Y267761D01*
X895131Y263752D01*
X892376Y259256D01*
X890358Y254384D01*
X889127Y249257D01*
X888714Y244000D01*
X889127Y238743D01*
X890358Y233616D01*
X892376Y228744D01*
X895131Y224248D01*
X898556Y220239D01*
X902566Y216814D01*
X907061Y214059D01*
X911933Y212041D01*
X917060Y210810D01*
X922317Y210396D01*
X927574Y210810D01*
X932701Y212041D01*
X937573Y214059D01*
X942069Y216814D01*
X946078Y220239D01*
X948730Y223343D01*
X950000Y222875D01*
Y20000D01*
X940000Y10000D01*
X20000D01*
X10000Y20000D01*
Y221397D01*
X11192Y221836D01*
X12556Y220239D01*
X16565Y216814D01*
X21061Y214059D01*
X25933Y212041D01*
X31060Y210810D01*
X36317Y210396D01*
X41574Y210810D01*
X46701Y212041D01*
X51573Y214059D01*
X56069Y216814D01*
X60078Y220239D01*
X63503Y224248D01*
X66258Y228744D01*
X68276Y233616D01*
X69507Y238743D01*
X69921Y244000D01*
X69507Y249257D01*
X68276Y254384D01*
X66258Y259256D01*
X63503Y263752D01*
X60078Y267761D01*
X56069Y271186D01*
X51573Y273941D01*
X46701Y275959D01*
X41574Y277190D01*
X36317Y277604D01*
X31060Y277190D01*
X25933Y275959D01*
X21061Y273941D01*
X16565Y271186D01*
X12556Y267761D01*
X11192Y266164D01*
X10000Y266604D01*
Y633396D01*
X11192Y633836D01*
X12556Y632239D01*
X16565Y628814D01*
X21061Y626059D01*
X25933Y624041D01*
X31060Y622810D01*
X36317Y622396D01*
X41574Y622810D01*
X46701Y624041D01*
X51573Y626059D01*
X56069Y628814D01*
X60078Y632239D01*
X63503Y636248D01*
X66258Y640744D01*
X68276Y645616D01*
X69507Y650743D01*
X69921Y656000D01*
X69507Y661257D01*
X68276Y666384D01*
X66258Y671256D01*
X63503Y675752D01*
X60078Y679761D01*
X56069Y683186D01*
X51573Y685941D01*
X46701Y687959D01*
X41574Y689190D01*
X36317Y689604D01*
X31060Y689190D01*
X25933Y687959D01*
X21061Y685941D01*
X16565Y683186D01*
X12556Y679761D01*
X11192Y678164D01*
X10000Y678604D01*
Y880000D01*
X20000Y890000D01*
X95457D01*
X95943Y888827D01*
X88558Y881442D01*
X88116Y880780D01*
X87961Y880000D01*
Y770000D01*
X88116Y769220D01*
X88558Y768558D01*
X88558Y768558D01*
X98558Y758558D01*
X99220Y758116D01*
X100000Y757961D01*
X620000Y757961D01*
X620000Y757961D01*
X620780Y758116D01*
X621442Y758558D01*
X621442Y758558D01*
X646442Y783558D01*
X646884Y784220D01*
X647039Y785000D01*
X647039Y875000D01*
X646884Y875780D01*
X646442Y876442D01*
X646442Y876442D01*
X634057Y888827D01*
X634543Y890000D01*
X940000D01*
X950000Y880000D01*
D02*
G37*
%LPC*%
G36*
X741000Y857086D02*
X738390Y856743D01*
X735957Y855735D01*
X733868Y854132D01*
X732265Y852043D01*
X731687Y850648D01*
X730313D01*
X729735Y852043D01*
X728132Y854132D01*
X726043Y855735D01*
X723611Y856743D01*
X721000Y857086D01*
X718390Y856743D01*
X715957Y855735D01*
X713868Y854132D01*
X712265Y852043D01*
X711687Y850648D01*
X710313D01*
X709735Y852043D01*
X708132Y854132D01*
X706043Y855735D01*
X703611Y856743D01*
X701000Y857086D01*
X698390Y856743D01*
X695957Y855735D01*
X693868Y854132D01*
X692265Y852043D01*
X691654Y850569D01*
X683500D01*
Y855500D01*
X672500D01*
Y838500D01*
X683500D01*
Y843431D01*
X691654D01*
X692265Y841957D01*
X693868Y839868D01*
X695957Y838265D01*
X698390Y837257D01*
X701000Y836914D01*
X703611Y837257D01*
X706043Y838265D01*
X708132Y839868D01*
X709735Y841957D01*
X710313Y843352D01*
X711687D01*
X712265Y841957D01*
X713868Y839868D01*
X715957Y838265D01*
X718390Y837257D01*
X721000Y836914D01*
X723611Y837257D01*
X726043Y838265D01*
X728132Y839868D01*
X729735Y841957D01*
X730313Y843352D01*
X731687D01*
X732265Y841957D01*
X733868Y839868D01*
X735957Y838265D01*
X738390Y837257D01*
X741000Y836914D01*
X743611Y837257D01*
X746043Y838265D01*
X748132Y839868D01*
X749735Y841957D01*
X750743Y844389D01*
X751086Y847000D01*
X750743Y849611D01*
X749735Y852043D01*
X748132Y854132D01*
X746043Y855735D01*
X743611Y856743D01*
X741000Y857086D01*
D02*
G37*
G36*
X663500Y855500D02*
X652500D01*
Y838500D01*
X663500D01*
Y855500D01*
D02*
G37*
G36*
X908600Y883704D02*
X903343Y883290D01*
X898216Y882059D01*
X893344Y880041D01*
X888848Y877286D01*
X884839Y873861D01*
X881414Y869852D01*
X878659Y865356D01*
X876641Y860484D01*
X875410Y855357D01*
X874996Y850100D01*
X875410Y844843D01*
X876641Y839716D01*
X878659Y834844D01*
X881414Y830348D01*
X884839Y826339D01*
X888848Y822914D01*
X893344Y820159D01*
X898216Y818141D01*
X903343Y816910D01*
X908600Y816497D01*
X913857Y816910D01*
X918984Y818141D01*
X923856Y820159D01*
X928352Y822914D01*
X932361Y826339D01*
X935786Y830348D01*
X938541Y834844D01*
X940559Y839716D01*
X941790Y844843D01*
X942204Y850100D01*
X941790Y855357D01*
X940559Y860484D01*
X938541Y865356D01*
X935786Y869852D01*
X932361Y873861D01*
X928352Y877286D01*
X923856Y880041D01*
X918984Y882059D01*
X913857Y883290D01*
X908600Y883704D01*
D02*
G37*
G36*
X813000Y852608D02*
X774000D01*
X771854Y852181D01*
X770035Y850965D01*
X751677Y832608D01*
X681000D01*
X678854Y832181D01*
X677035Y830965D01*
X668035Y821965D01*
X666819Y820146D01*
X666392Y818000D01*
Y811797D01*
X665659Y811651D01*
X663674Y810325D01*
X662348Y808340D01*
X661882Y805999D01*
Y797999D01*
X662348Y795658D01*
X663674Y793674D01*
X665659Y792347D01*
X668000Y791882D01*
X676000D01*
X678341Y792347D01*
X680326Y793674D01*
X681652Y795658D01*
X681904Y796924D01*
X683224Y797054D01*
X683265Y796956D01*
X684868Y794867D01*
X686957Y793264D01*
X689081Y792384D01*
Y762000D01*
X687800D01*
Y738000D01*
X698800D01*
Y762000D01*
X696219D01*
Y792923D01*
X697043Y793264D01*
X699132Y794867D01*
X700735Y796956D01*
X701313Y798351D01*
X702687D01*
X703265Y796956D01*
X704204Y795732D01*
X703477Y795005D01*
X702703Y793847D01*
X702431Y792482D01*
Y762000D01*
X700500D01*
Y738000D01*
X711500D01*
Y762000D01*
X709569D01*
Y791003D01*
X710655Y792090D01*
X712000Y791913D01*
X714611Y792257D01*
X717043Y793264D01*
X719132Y794867D01*
X720735Y796956D01*
X721743Y799389D01*
X722086Y801999D01*
X721743Y804610D01*
X720735Y807042D01*
X719132Y809131D01*
X717043Y810734D01*
X714611Y811742D01*
X712000Y812086D01*
X709389Y811742D01*
X706957Y810734D01*
X704868Y809131D01*
X703265Y807042D01*
X702687Y805648D01*
X701313D01*
X700735Y807042D01*
X699132Y809131D01*
X697043Y810734D01*
X694611Y811742D01*
X692000Y812086D01*
X689389Y811742D01*
X686957Y810734D01*
X684868Y809131D01*
X683265Y807042D01*
X683224Y806944D01*
X681904Y807075D01*
X681652Y808340D01*
X680326Y810325D01*
X678341Y811651D01*
X677608Y811797D01*
Y815677D01*
X683323Y821392D01*
X754000D01*
X756146Y821819D01*
X757965Y823035D01*
X776323Y841392D01*
X810677D01*
X825474Y826595D01*
X825429Y826250D01*
Y813750D01*
X825712Y811596D01*
X826544Y809589D01*
X827866Y807866D01*
X829589Y806544D01*
X831596Y805712D01*
X833750Y805429D01*
X846250D01*
X848404Y805712D01*
X850411Y806544D01*
X852134Y807866D01*
X853456Y809589D01*
X854288Y811596D01*
X854571Y813750D01*
Y826250D01*
X854288Y828404D01*
X853456Y830411D01*
X852134Y832134D01*
X850411Y833456D01*
X848404Y834288D01*
X846250Y834571D01*
X833750D01*
X833405Y834526D01*
X816965Y850965D01*
X815146Y852181D01*
X813000Y852608D01*
D02*
G37*
G36*
X51300Y858304D02*
X46043Y857890D01*
X40916Y856659D01*
X36044Y854641D01*
X31548Y851886D01*
X27539Y848461D01*
X24114Y844452D01*
X21359Y839956D01*
X19341Y835084D01*
X18110Y829957D01*
X17696Y824700D01*
X18110Y819443D01*
X19341Y814316D01*
X21359Y809444D01*
X24114Y804948D01*
X27539Y800939D01*
X31548Y797514D01*
X36044Y794759D01*
X40916Y792741D01*
X46043Y791510D01*
X51300Y791096D01*
X56557Y791510D01*
X61684Y792741D01*
X66556Y794759D01*
X71052Y797514D01*
X75061Y800939D01*
X78486Y804948D01*
X81241Y809444D01*
X83259Y814316D01*
X84490Y819443D01*
X84904Y824700D01*
X84490Y829957D01*
X83259Y835084D01*
X81241Y839956D01*
X78486Y844452D01*
X75061Y848461D01*
X71052Y851886D01*
X66556Y854641D01*
X61684Y856659D01*
X56557Y857890D01*
X51300Y858304D01*
D02*
G37*
G36*
X901500Y785250D02*
X884500D01*
Y769250D01*
X887150D01*
X887955Y768268D01*
X887902Y768000D01*
X888290Y766049D01*
X889395Y764395D01*
X891049Y763290D01*
X893000Y762902D01*
X894951Y763290D01*
X896605Y764395D01*
X897710Y766049D01*
X898098Y768000D01*
X898045Y768268D01*
X898850Y769250D01*
X901500D01*
Y785250D01*
D02*
G37*
G36*
X40000Y772086D02*
X37390Y771743D01*
X34957Y770735D01*
X32868Y769132D01*
X31265Y767043D01*
X30257Y764611D01*
X29914Y762000D01*
X30257Y759389D01*
X31265Y756957D01*
X32868Y754868D01*
X34957Y753265D01*
X36352Y752687D01*
Y751313D01*
X34957Y750735D01*
X32868Y749132D01*
X31265Y747043D01*
X30257Y744611D01*
X29914Y742000D01*
X30257Y739389D01*
X31265Y736957D01*
X32868Y734868D01*
X34957Y733265D01*
X37390Y732257D01*
X40000Y731914D01*
X42611Y732257D01*
X45043Y733265D01*
X47132Y734868D01*
X48735Y736957D01*
X49742Y739389D01*
X50086Y742000D01*
X49742Y744611D01*
X48735Y747043D01*
X47132Y749132D01*
X45043Y750735D01*
X43648Y751313D01*
Y752687D01*
X45043Y753265D01*
X47132Y754868D01*
X48735Y756957D01*
X49742Y759389D01*
X50086Y762000D01*
X49742Y764611D01*
X48735Y767043D01*
X47132Y769132D01*
X45043Y770735D01*
X42611Y771743D01*
X40000Y772086D01*
D02*
G37*
G36*
X686100Y762000D02*
X675100D01*
Y738000D01*
X675100Y738000D01*
X675100D01*
X675051Y736750D01*
X674902Y736000D01*
X675290Y734049D01*
X676395Y732395D01*
X678049Y731290D01*
X680000Y730902D01*
X681951Y731290D01*
X683605Y732395D01*
X684710Y734049D01*
X685098Y736000D01*
X684953Y736730D01*
X685995Y738000D01*
X686100D01*
Y762000D01*
D02*
G37*
G36*
X653000Y748098D02*
X651049Y747710D01*
X649395Y746605D01*
X648290Y744951D01*
X647902Y743000D01*
X648290Y741049D01*
X648500Y740735D01*
Y725750D01*
X665500D01*
Y741750D01*
X658850D01*
X658045Y742732D01*
X658098Y743000D01*
X657710Y744951D01*
X656605Y746605D01*
X654951Y747710D01*
X653000Y748098D01*
D02*
G37*
G36*
X628200Y745000D02*
X604200D01*
Y721000D01*
X628200D01*
Y745000D01*
D02*
G37*
G36*
X126476Y719000D02*
X109476D01*
Y703000D01*
X113132D01*
X113811Y701730D01*
X113290Y700951D01*
X112902Y699000D01*
X113290Y697049D01*
X114395Y695395D01*
X116049Y694290D01*
X118000Y693902D01*
X119951Y694290D01*
X121605Y695395D01*
X122710Y697049D01*
X123098Y699000D01*
X122710Y700951D01*
X122189Y701730D01*
X122868Y703000D01*
X126476D01*
Y719000D01*
D02*
G37*
G36*
X387000Y755314D02*
X350000D01*
X348732Y755061D01*
X347657Y754343D01*
X342657Y749343D01*
X341939Y748268D01*
X341686Y747000D01*
Y744451D01*
X339957Y743735D01*
X337868Y742132D01*
X336265Y740043D01*
X335687Y738648D01*
X334313D01*
X333735Y740043D01*
X332132Y742132D01*
X330043Y743735D01*
X327611Y744743D01*
X325000Y745086D01*
X322389Y744743D01*
X319957Y743735D01*
X317868Y742132D01*
X316265Y740043D01*
X315549Y738314D01*
X313000D01*
X311732Y738061D01*
X310657Y737343D01*
X306657Y733343D01*
X305939Y732268D01*
X305686Y731000D01*
Y704000D01*
X305939Y702732D01*
X306657Y701657D01*
X313657Y694657D01*
X314732Y693939D01*
X316000Y693686D01*
X424627D01*
X520600Y597714D01*
X521675Y596996D01*
X522943Y596744D01*
X558570D01*
X570686Y584627D01*
Y485373D01*
X559627Y474314D01*
X521500D01*
Y479000D01*
X518078D01*
X517592Y480173D01*
X522105Y484686D01*
X528500D01*
Y483000D01*
X541500D01*
Y483000D01*
X542602Y483589D01*
X543049Y483290D01*
X545000Y482902D01*
X546951Y483290D01*
X548605Y484395D01*
X549710Y486049D01*
X550098Y488000D01*
X549710Y489951D01*
X548605Y491605D01*
X546951Y492710D01*
X545000Y493098D01*
X543049Y492710D01*
X542602Y492411D01*
X541500Y493000D01*
Y493000D01*
X528500D01*
Y491314D01*
X520732D01*
X519464Y491061D01*
X518389Y490343D01*
X514487Y486441D01*
X513314Y486927D01*
Y494201D01*
X513605Y494395D01*
X514710Y496049D01*
X515098Y498000D01*
X516181Y499065D01*
X517000Y498902D01*
X518951Y499290D01*
X520605Y500395D01*
X520799Y500686D01*
X528500D01*
Y499000D01*
X541500D01*
Y509000D01*
X528500D01*
Y507314D01*
X520799D01*
X520605Y507605D01*
X518951Y508710D01*
X517000Y509098D01*
X516476Y508994D01*
X515850Y510164D01*
X516343Y510657D01*
X517061Y511732D01*
X517314Y513000D01*
Y587000D01*
X517061Y588268D01*
X516343Y589343D01*
X445343Y660343D01*
X444268Y661061D01*
X443000Y661314D01*
X319799D01*
X319605Y661605D01*
X317951Y662710D01*
X316000Y663098D01*
X314049Y662710D01*
X312395Y661605D01*
X311290Y659951D01*
X310902Y658000D01*
X311290Y656049D01*
X312395Y654395D01*
X314049Y653290D01*
X316000Y652902D01*
X317951Y653290D01*
X319605Y654395D01*
X319799Y654686D01*
X441628D01*
X510686Y585628D01*
Y514372D01*
X506573Y510260D01*
X505400Y510746D01*
Y532230D01*
X503855D01*
X503605Y532605D01*
X501951Y533710D01*
X500000Y534098D01*
X498049Y533710D01*
X496395Y532605D01*
X496145Y532230D01*
X494400D01*
Y508230D01*
X502884D01*
X503371Y507057D01*
X493657Y497343D01*
X492939Y496268D01*
X492843Y495788D01*
X492157Y495548D01*
X491479Y495439D01*
X489951Y496460D01*
X488000Y496848D01*
X486049Y496460D01*
X484395Y495355D01*
X483290Y493701D01*
X482902Y491750D01*
X483290Y489799D01*
X484395Y488145D01*
X484686Y487951D01*
Y479000D01*
X476314D01*
Y508230D01*
X480000D01*
Y528507D01*
X480098Y529000D01*
X480000Y529492D01*
Y532230D01*
X478855D01*
X478605Y532605D01*
X476951Y533710D01*
X475000Y534098D01*
X473049Y533710D01*
X471395Y532605D01*
X471145Y532230D01*
X469000D01*
Y508230D01*
X469686D01*
Y504659D01*
X468513Y504173D01*
X465814Y506872D01*
Y508230D01*
X467300D01*
Y532230D01*
X465855D01*
X465605Y532605D01*
X463951Y533710D01*
X462000Y534098D01*
X460049Y533710D01*
X458395Y532605D01*
X458145Y532230D01*
X456300D01*
Y508230D01*
X459186D01*
Y505500D01*
X459439Y504232D01*
X460157Y503157D01*
X464436Y498877D01*
Y471250D01*
X464500Y470930D01*
Y463000D01*
X521500D01*
Y467686D01*
X561000D01*
X562268Y467938D01*
X563343Y468657D01*
X576343Y481657D01*
X577061Y482732D01*
X577314Y484000D01*
Y586000D01*
X577061Y587268D01*
X576343Y588343D01*
X562286Y602400D01*
X561211Y603119D01*
X559943Y603371D01*
X524315D01*
X428343Y699343D01*
X427268Y700061D01*
X426000Y700314D01*
X317373D01*
X312314Y705373D01*
Y729628D01*
X314373Y731686D01*
X315549D01*
X316265Y729957D01*
X317868Y727868D01*
X319957Y726265D01*
X320055Y726224D01*
X319925Y724904D01*
X318659Y724652D01*
X316674Y723326D01*
X315348Y721341D01*
X314883Y719000D01*
Y711000D01*
X315348Y708659D01*
X316674Y706674D01*
X318659Y705348D01*
X321000Y704883D01*
X329000D01*
X331341Y705348D01*
X333326Y706674D01*
X334652Y708659D01*
X335117Y711000D01*
Y719000D01*
X334652Y721341D01*
X333326Y723326D01*
X331341Y724652D01*
X330075Y724904D01*
X329945Y726224D01*
X330043Y726265D01*
X332132Y727868D01*
X333735Y729957D01*
X334313Y731352D01*
X335687D01*
X336265Y729957D01*
X337868Y727868D01*
X339957Y726265D01*
X342389Y725257D01*
X345000Y724914D01*
X347611Y725257D01*
X350043Y726265D01*
X352132Y727868D01*
X353735Y729957D01*
X354313Y731352D01*
X355687D01*
X356265Y729957D01*
X357868Y727868D01*
X359957Y726265D01*
X361352Y725687D01*
Y724313D01*
X359957Y723735D01*
X357868Y722132D01*
X356265Y720043D01*
X355257Y717610D01*
X354914Y715000D01*
X355257Y712390D01*
X356265Y709957D01*
X357868Y707868D01*
X359957Y706265D01*
X362389Y705257D01*
X365000Y704914D01*
X367611Y705257D01*
X370043Y706265D01*
X372132Y707868D01*
X373735Y709957D01*
X374743Y712390D01*
X375086Y715000D01*
X374743Y717610D01*
X373735Y720043D01*
X372132Y722132D01*
X370043Y723735D01*
X368648Y724313D01*
Y725687D01*
X370043Y726265D01*
X372132Y727868D01*
X373735Y729957D01*
X374743Y732390D01*
X375086Y735000D01*
X374743Y737610D01*
X373735Y740043D01*
X372132Y742132D01*
X370043Y743735D01*
X367611Y744743D01*
X365000Y745086D01*
X362389Y744743D01*
X359957Y743735D01*
X357868Y742132D01*
X356265Y740043D01*
X355687Y738648D01*
X354313D01*
X353735Y740043D01*
X352132Y742132D01*
X350043Y743735D01*
X348314Y744451D01*
Y745628D01*
X351372Y748686D01*
X385628D01*
X526657Y607657D01*
X527732Y606939D01*
X529000Y606686D01*
X561628D01*
X582686Y585628D01*
Y481373D01*
X550657Y449343D01*
X545814Y444500D01*
X530000D01*
Y432500D01*
Y422500D01*
Y412500D01*
Y402500D01*
Y392500D01*
Y382500D01*
Y372500D01*
X546000D01*
Y372686D01*
X556628D01*
X570686Y358628D01*
Y335799D01*
X570395Y335605D01*
X569290Y333951D01*
X568902Y332000D01*
X569290Y330049D01*
X570395Y328395D01*
X570686Y328201D01*
Y327000D01*
X570000D01*
Y313000D01*
X576730D01*
X578000Y313000D01*
Y313000D01*
X578000D01*
Y313000D01*
X592730D01*
X594000Y313000D01*
Y313000D01*
X594000D01*
Y313000D01*
X602000D01*
Y327000D01*
X601314D01*
Y335201D01*
X601605Y335395D01*
X602710Y337049D01*
X603098Y339000D01*
X602710Y340951D01*
X601605Y342605D01*
X601314Y342799D01*
Y362204D01*
X602584Y362730D01*
X616686Y348627D01*
Y335799D01*
X616395Y335605D01*
X615290Y333951D01*
X614902Y332000D01*
X615290Y330049D01*
X616395Y328395D01*
X616686Y328201D01*
Y327000D01*
X616000D01*
Y313000D01*
X622730D01*
X624000Y313000D01*
Y313000D01*
X624000D01*
Y313000D01*
X638730D01*
X640000Y313000D01*
Y313000D01*
X640000D01*
Y313000D01*
X648000D01*
Y327000D01*
X647314D01*
Y335201D01*
X647605Y335395D01*
X648710Y337049D01*
X649098Y339000D01*
X648710Y340951D01*
X647605Y342605D01*
X647314Y342799D01*
Y353000D01*
X647061Y354268D01*
X646343Y355343D01*
X602120Y399567D01*
X602745Y400737D01*
X603000Y400686D01*
X733201D01*
X733395Y400395D01*
X735049Y399290D01*
X737000Y398902D01*
X738951Y399290D01*
X740605Y400395D01*
X741710Y402049D01*
X742098Y404000D01*
X741710Y405951D01*
X740605Y407605D01*
X738951Y408710D01*
X737000Y409098D01*
X735049Y408710D01*
X733395Y407605D01*
X733201Y407314D01*
X604373D01*
X593343Y418343D01*
X592268Y419061D01*
X591000Y419314D01*
X569659D01*
X569173Y420487D01*
X721043Y572357D01*
X721761Y573432D01*
X722014Y574700D01*
Y680850D01*
X724200D01*
Y689281D01*
X737850D01*
X739216Y689553D01*
X740373Y690327D01*
X744523Y694477D01*
X745297Y695634D01*
X745569Y697000D01*
Y703000D01*
X749686D01*
Y686373D01*
X732343Y669030D01*
X732000Y669098D01*
X730049Y668710D01*
X728395Y667605D01*
X727290Y665951D01*
X726902Y664000D01*
X727290Y662049D01*
X728395Y660395D01*
X730049Y659290D01*
X732000Y658902D01*
X733951Y659290D01*
X735605Y660395D01*
X736710Y662049D01*
X737098Y664000D01*
X737030Y664343D01*
X755343Y682657D01*
X756061Y683732D01*
X756314Y685000D01*
Y746201D01*
X756605Y746395D01*
X757710Y748049D01*
X758098Y750000D01*
X757710Y751951D01*
X756605Y753605D01*
X754951Y754710D01*
X753000Y755098D01*
X751049Y754710D01*
X749395Y753605D01*
X748290Y751951D01*
X747902Y750000D01*
X748290Y748049D01*
X749395Y746395D01*
X749686Y746201D01*
Y741750D01*
X733500D01*
Y725750D01*
X736249D01*
X737055Y724769D01*
X736902Y724000D01*
X737290Y722049D01*
X738395Y720395D01*
X738583Y720270D01*
X738197Y719000D01*
X733500D01*
Y703000D01*
X738431D01*
Y698478D01*
X736372Y696419D01*
X724200D01*
Y704850D01*
X713200D01*
Y680850D01*
X715386D01*
Y576073D01*
X626289Y486976D01*
X625002Y487484D01*
X624710Y488951D01*
X623605Y490605D01*
X621951Y491710D01*
X620484Y492002D01*
X619976Y493289D01*
X708343Y581657D01*
X709061Y582732D01*
X709314Y584000D01*
Y680850D01*
X711500D01*
Y704850D01*
X700500D01*
Y696164D01*
X698800D01*
Y704850D01*
X687800D01*
Y680850D01*
X698800D01*
Y689536D01*
X700500D01*
Y680850D01*
X702686D01*
Y585373D01*
X551628Y434314D01*
X546000D01*
Y437686D01*
X547000D01*
X548268Y437938D01*
X549343Y438657D01*
X555343Y444657D01*
X555343Y444657D01*
X588343Y477657D01*
X589061Y478732D01*
X589314Y480000D01*
Y587000D01*
X589061Y588268D01*
X588343Y589343D01*
X565343Y612343D01*
X564268Y613061D01*
X563000Y613314D01*
X530373D01*
X389343Y754343D01*
X388268Y755061D01*
X388058Y755103D01*
X387000Y755314D01*
D02*
G37*
G36*
X665500Y719000D02*
X648500D01*
Y703000D01*
X653431D01*
Y697000D01*
X653703Y695634D01*
X654477Y694477D01*
X658627Y690327D01*
X659784Y689553D01*
X661150Y689281D01*
X675100D01*
Y680850D01*
X677286D01*
Y664536D01*
X676016Y664411D01*
X675940Y664792D01*
X675710Y665951D01*
X674605Y667605D01*
X672951Y668710D01*
X671000Y669098D01*
X669049Y668710D01*
X667395Y667605D01*
X666290Y665951D01*
X665902Y664000D01*
X665911Y663957D01*
X630477Y628523D01*
X629703Y627366D01*
X629431Y626000D01*
Y563629D01*
X629395Y563605D01*
X628290Y561951D01*
X627902Y560000D01*
X628290Y558049D01*
X629395Y556395D01*
X631049Y555290D01*
X633000Y554902D01*
X634951Y555290D01*
X636605Y556395D01*
X637710Y558049D01*
X638098Y560000D01*
X637710Y561951D01*
X636605Y563605D01*
X636569Y563629D01*
Y624522D01*
X670957Y658911D01*
X671000Y658902D01*
X672951Y659290D01*
X674605Y660395D01*
X675710Y662049D01*
X675940Y663207D01*
X676016Y663589D01*
X677286Y663464D01*
Y583973D01*
X620343Y527030D01*
X620000Y527098D01*
X618049Y526710D01*
X616395Y525605D01*
X615290Y523951D01*
X614902Y522000D01*
X615290Y520049D01*
X616395Y518395D01*
X618049Y517290D01*
X620000Y516902D01*
X621951Y517290D01*
X623605Y518395D01*
X624710Y520049D01*
X625098Y522000D01*
X625030Y522343D01*
X682943Y580257D01*
X683661Y581332D01*
X683914Y582600D01*
Y680850D01*
X686100D01*
Y704850D01*
X675100D01*
Y696419D01*
X662628D01*
X660569Y698478D01*
Y703000D01*
X665500D01*
Y719000D01*
D02*
G37*
G36*
X289501Y719000D02*
X272501D01*
Y703000D01*
X277431D01*
Y668000D01*
X274500D01*
Y658000D01*
X287500D01*
Y668000D01*
X284569D01*
Y703000D01*
X289501D01*
Y719000D01*
D02*
G37*
G36*
X241500Y719000D02*
X224500D01*
Y703000D01*
X229431D01*
Y668000D01*
X226500D01*
Y658000D01*
X239500D01*
Y668000D01*
X236569D01*
Y703000D01*
X241500D01*
Y719000D01*
D02*
G37*
G36*
X807000Y668098D02*
X805049Y667710D01*
X803395Y666605D01*
X802290Y664951D01*
X801902Y663000D01*
X802290Y661049D01*
X803395Y659395D01*
X803431Y659371D01*
Y634478D01*
X801522Y632569D01*
X787478D01*
X780517Y639530D01*
X780517Y639530D01*
X779523Y640523D01*
X778366Y641297D01*
X777000Y641569D01*
X775500D01*
Y643000D01*
X762500D01*
Y642588D01*
X760133D01*
X759951Y642710D01*
X758000Y643098D01*
X756049Y642710D01*
X754395Y641605D01*
X753290Y639951D01*
X752902Y638000D01*
X753290Y636049D01*
X754395Y634395D01*
X756049Y633290D01*
X758000Y632902D01*
X759951Y633290D01*
X760133Y633412D01*
X762500D01*
Y633000D01*
X775500D01*
Y633000D01*
X776770Y633183D01*
X783477Y626477D01*
X784634Y625703D01*
X786000Y625431D01*
X803000D01*
X804366Y625703D01*
X805523Y626477D01*
X809523Y630477D01*
X810297Y631634D01*
X810569Y633000D01*
Y658412D01*
X841099D01*
X845412Y654100D01*
Y647000D01*
X836500D01*
Y623000D01*
X865500D01*
Y647000D01*
X854588D01*
Y656000D01*
X854239Y657756D01*
X853244Y659244D01*
X846244Y666244D01*
X844756Y667239D01*
X843000Y667588D01*
X809133D01*
X808951Y667710D01*
X807000Y668098D01*
D02*
G37*
G36*
X438400Y745104D02*
X435267Y744691D01*
X432348Y743482D01*
X429841Y741559D01*
X427918Y739052D01*
X426709Y736133D01*
X426297Y733000D01*
X426709Y729867D01*
X427918Y726948D01*
X429841Y724442D01*
X432348Y722518D01*
X435267Y721309D01*
X438400Y720896D01*
X441533Y721309D01*
X442713Y721798D01*
X541697Y622814D01*
X542645Y621395D01*
X544299Y620290D01*
X546250Y619902D01*
X548201Y620290D01*
X549855Y621395D01*
X550960Y623049D01*
X551348Y625000D01*
X550960Y626951D01*
X549855Y628605D01*
X548201Y629710D01*
X547674Y629815D01*
X449368Y728121D01*
X450091Y729867D01*
X450504Y733000D01*
X450091Y736133D01*
X448882Y739052D01*
X446959Y741559D01*
X444452Y743482D01*
X441533Y744691D01*
X438400Y745104D01*
D02*
G37*
G36*
X287500Y652000D02*
X274500D01*
Y642000D01*
X277686D01*
Y631000D01*
X277939Y629732D01*
X278657Y628657D01*
X285657Y621657D01*
X286732Y620939D01*
X288000Y620686D01*
X366628D01*
X368645Y618669D01*
X367836Y617682D01*
X367268Y618061D01*
X366000Y618314D01*
X250373D01*
X236314Y632373D01*
Y642000D01*
X239500D01*
Y652000D01*
X226500D01*
Y642000D01*
X229686D01*
Y631000D01*
X229939Y629732D01*
X230657Y628657D01*
X246657Y612657D01*
X247732Y611939D01*
X249000Y611686D01*
X364627D01*
X414024Y562290D01*
X413516Y561002D01*
X412049Y560710D01*
X410395Y559605D01*
X409290Y557951D01*
X408902Y556000D01*
X409290Y554049D01*
X410395Y552395D01*
X412049Y551290D01*
X414000Y550902D01*
X414343Y550970D01*
X425686Y539627D01*
Y462373D01*
X420657Y457343D01*
X419939Y456268D01*
X419686Y455000D01*
Y454500D01*
X415314D01*
Y460500D01*
X417000D01*
Y473500D01*
X415314D01*
Y490000D01*
Y494500D01*
X418500D01*
Y515500D01*
X405500D01*
Y494500D01*
X408686D01*
Y490000D01*
Y473500D01*
X407000D01*
Y460500D01*
X408686D01*
Y445796D01*
X407416Y445270D01*
X385314Y467373D01*
Y477500D01*
X387000D01*
Y490500D01*
X385314D01*
Y494500D01*
X388500D01*
Y515500D01*
X375500D01*
Y494500D01*
X378686D01*
Y490500D01*
X377000D01*
Y477500D01*
X378686D01*
Y466000D01*
X378939Y464732D01*
X379657Y463657D01*
X407827Y435487D01*
X407341Y434314D01*
X355773D01*
X352500Y437586D01*
Y440243D01*
X352573Y440800D01*
X352500Y441357D01*
Y486900D01*
X335500D01*
Y441357D01*
X335427Y440800D01*
X335500Y440243D01*
Y432900D01*
X340861D01*
X341781Y432519D01*
X344000Y432227D01*
X346219Y432519D01*
X347139Y432900D01*
X347814D01*
X352057Y428657D01*
X353132Y427938D01*
X354400Y427686D01*
X363341D01*
X363827Y426513D01*
X341657Y404343D01*
X340939Y403268D01*
X340686Y402000D01*
Y398000D01*
X335500D01*
Y390557D01*
X335427Y390000D01*
X335500Y389443D01*
Y344000D01*
X352500D01*
Y389443D01*
X352573Y390000D01*
X352500Y390557D01*
Y398000D01*
X347314D01*
Y400628D01*
X369373Y422686D01*
X415000D01*
Y419314D01*
X393000D01*
X391732Y419061D01*
X390657Y418343D01*
X374657Y402343D01*
X373939Y401268D01*
X373686Y400000D01*
Y354373D01*
X357627Y338314D01*
X339000D01*
X337732Y338061D01*
X336657Y337343D01*
X330343Y331030D01*
X330000Y331098D01*
X328049Y330710D01*
X326395Y329605D01*
X325290Y327951D01*
X324902Y326000D01*
X325290Y324049D01*
X326395Y322395D01*
X326686Y322201D01*
Y321000D01*
X323500D01*
Y319314D01*
X319500D01*
Y321000D01*
X306500D01*
Y311000D01*
X319500D01*
Y312686D01*
X323500D01*
Y311000D01*
X336500D01*
Y321000D01*
X333314D01*
Y322201D01*
X333605Y322395D01*
X334710Y324049D01*
X335098Y326000D01*
X335030Y326343D01*
X340373Y331686D01*
X359000D01*
X360268Y331939D01*
X361343Y332657D01*
X363567Y334880D01*
X364737Y334255D01*
X364686Y334000D01*
Y329799D01*
X364395Y329605D01*
X363290Y327951D01*
X362902Y326000D01*
X363290Y324049D01*
X364395Y322395D01*
X364686Y322201D01*
Y321000D01*
X361500D01*
Y319314D01*
X357500D01*
Y321000D01*
X344500D01*
Y311000D01*
X357500D01*
Y312686D01*
X361500D01*
Y311000D01*
X374500D01*
Y321000D01*
X371314D01*
Y322201D01*
X371605Y322395D01*
X372710Y324049D01*
X373098Y326000D01*
X372710Y327951D01*
X371605Y329605D01*
X371314Y329799D01*
Y332627D01*
X386343Y347657D01*
X386794Y348332D01*
X386915Y348374D01*
X388114Y348364D01*
X388206Y348332D01*
X388657Y347657D01*
X402527Y333787D01*
Y329693D01*
X402395Y329605D01*
X401290Y327951D01*
X400902Y326000D01*
X401290Y324049D01*
X402395Y322395D01*
X402527Y322307D01*
Y321000D01*
X399341D01*
Y319314D01*
X395340D01*
Y321000D01*
X382341D01*
Y311000D01*
X395340D01*
Y312686D01*
X399341D01*
Y311000D01*
X412340D01*
Y321000D01*
X409668D01*
X409417Y322270D01*
X409605Y322395D01*
X410710Y324049D01*
X411098Y326000D01*
X410710Y327951D01*
X409605Y329605D01*
X409154Y329906D01*
Y335160D01*
X408902Y336428D01*
X408184Y337503D01*
X394314Y351373D01*
Y357381D01*
X395584Y357766D01*
X395657Y357657D01*
X423423Y329891D01*
X423395Y329605D01*
X422290Y327951D01*
X421902Y326000D01*
X422290Y324049D01*
X423395Y322395D01*
X423686Y322201D01*
Y321000D01*
X420500D01*
Y311000D01*
X433500D01*
Y312686D01*
X437500D01*
Y311000D01*
X450500D01*
Y321000D01*
X437500D01*
Y319314D01*
X433500D01*
Y321000D01*
X430314D01*
Y322201D01*
X430605Y322395D01*
X431710Y324049D01*
X432098Y326000D01*
X431710Y327951D01*
X430605Y329605D01*
X430314Y329799D01*
Y331000D01*
X430061Y332268D01*
X429343Y333343D01*
X401314Y361373D01*
Y391627D01*
X407373Y397686D01*
X415000D01*
Y397500D01*
X431000D01*
Y402500D01*
Y412500D01*
Y422500D01*
Y432500D01*
Y442500D01*
Y454500D01*
X428845D01*
X428359Y455673D01*
X431343Y458657D01*
X432061Y459732D01*
X432314Y461000D01*
Y541000D01*
X432061Y542268D01*
X431682Y542835D01*
X432669Y543645D01*
X433686Y542627D01*
Y498000D01*
X433939Y496732D01*
X434657Y495657D01*
X449686Y480627D01*
Y479000D01*
X449500D01*
Y463000D01*
X461500D01*
Y479000D01*
X461314D01*
Y486000D01*
X461062Y487268D01*
X460343Y488343D01*
X448314Y500373D01*
Y547000D01*
X448061Y548268D01*
X447343Y549343D01*
X370343Y626343D01*
X369268Y627061D01*
X368000Y627314D01*
X289373D01*
X284314Y632373D01*
Y642000D01*
X287500D01*
Y652000D01*
D02*
G37*
G36*
X775500Y609000D02*
X762500D01*
Y599000D01*
X765431D01*
Y589000D01*
X765703Y587634D01*
X766477Y586477D01*
X779477Y573477D01*
X780634Y572703D01*
X782000Y572431D01*
X790371D01*
X790395Y572395D01*
X792049Y571290D01*
X794000Y570902D01*
X795951Y571290D01*
X797605Y572395D01*
X798710Y574049D01*
X799098Y576000D01*
X798710Y577951D01*
X797605Y579605D01*
X795951Y580710D01*
X794000Y581098D01*
X792049Y580710D01*
X790395Y579605D01*
X790371Y579569D01*
X783478D01*
X772569Y590478D01*
Y599000D01*
X775500D01*
Y609000D01*
D02*
G37*
G36*
X792000Y569500D02*
X782000D01*
Y567588D01*
X780133D01*
X779951Y567710D01*
X778000Y568098D01*
X776049Y567710D01*
X774395Y566605D01*
X773290Y564951D01*
X772902Y563000D01*
X773290Y561049D01*
X774395Y559395D01*
X776049Y558290D01*
X778000Y557902D01*
X779951Y558290D01*
X780133Y558412D01*
X782000D01*
Y556500D01*
X792000D01*
Y569500D01*
D02*
G37*
G36*
X819000Y576098D02*
X817049Y575710D01*
X815395Y574605D01*
X814290Y572951D01*
X813902Y571000D01*
X814161Y569697D01*
X814000Y569500D01*
X814000D01*
Y556500D01*
X824000D01*
Y569500D01*
X824000D01*
X823839Y569697D01*
X824098Y571000D01*
X823710Y572951D01*
X822605Y574605D01*
X820951Y575710D01*
X819000Y576098D01*
D02*
G37*
G36*
X174000Y570625D02*
X170215Y570127D01*
X166687Y568666D01*
X163659Y566342D01*
X161334Y563313D01*
X159873Y559785D01*
X159375Y556000D01*
X159873Y552215D01*
X161334Y548687D01*
X163659Y545658D01*
X166687Y543334D01*
X170215Y541873D01*
X174000Y541375D01*
X177785Y541873D01*
X181313Y543334D01*
X184342Y545658D01*
X186666Y548687D01*
X188127Y552215D01*
X188625Y556000D01*
X188127Y559785D01*
X186666Y563313D01*
X184342Y566342D01*
X181313Y568666D01*
X177785Y570127D01*
X174000Y570625D01*
D02*
G37*
G36*
X716000Y538098D02*
X714049Y537710D01*
X712395Y536605D01*
X711290Y534951D01*
X710902Y533000D01*
X711290Y531049D01*
X712395Y529395D01*
X714049Y528290D01*
X716000Y527902D01*
X717951Y528290D01*
X718133Y528412D01*
X853100D01*
X860199Y521312D01*
X859898Y520042D01*
X851003D01*
X850223Y519887D01*
X849561Y519445D01*
X849119Y518784D01*
X848964Y518003D01*
Y484588D01*
X847000D01*
Y486500D01*
X837000D01*
Y473500D01*
X847000D01*
Y475412D01*
X848964D01*
Y464003D01*
X849119Y463223D01*
X849561Y462561D01*
X850223Y462119D01*
X850392Y462086D01*
Y454323D01*
X844173Y448104D01*
X843000Y448590D01*
Y454000D01*
X819000D01*
Y426000D01*
X843000D01*
Y434392D01*
X844000D01*
X846146Y434819D01*
X847965Y436035D01*
X859965Y448035D01*
X861181Y449854D01*
X861608Y452000D01*
Y461964D01*
X869412D01*
Y447901D01*
X842100Y420588D01*
X723133D01*
X722951Y420710D01*
X721000Y421098D01*
X719049Y420710D01*
X717395Y419605D01*
X716290Y417951D01*
X715902Y416000D01*
X716290Y414049D01*
X717395Y412395D01*
X719049Y411290D01*
X721000Y410902D01*
X722951Y411290D01*
X723133Y411412D01*
X844000D01*
X845756Y411761D01*
X847244Y412756D01*
X877244Y442756D01*
X878239Y444244D01*
X878588Y446000D01*
Y461964D01*
X879003D01*
X879784Y462119D01*
X880445Y462561D01*
X880887Y463223D01*
X881042Y464003D01*
Y518003D01*
X880887Y518784D01*
X880445Y519445D01*
X879784Y519887D01*
X879003Y520042D01*
X869588D01*
Y523000D01*
X869239Y524756D01*
X868244Y526244D01*
X858244Y536244D01*
X856756Y537239D01*
X855000Y537588D01*
X718133D01*
X717951Y537710D01*
X716000Y538098D01*
D02*
G37*
G36*
X781000Y520039D02*
X753000D01*
X752220Y519884D01*
X751558Y519442D01*
X751116Y518780D01*
X750961Y518000D01*
Y464000D01*
X751116Y463220D01*
X751558Y462558D01*
X752220Y462116D01*
X753000Y461961D01*
X781000D01*
X781780Y462116D01*
X782442Y462558D01*
X782884Y463220D01*
X783039Y464000D01*
Y518000D01*
X782884Y518780D01*
X782442Y519442D01*
X781780Y519884D01*
X781000Y520039D01*
D02*
G37*
G36*
X446500Y479000D02*
X439500D01*
Y467508D01*
X439000Y467098D01*
X437049Y466710D01*
X435395Y465605D01*
X434290Y463951D01*
X433902Y462000D01*
X434290Y460049D01*
X435395Y458395D01*
X437049Y457290D01*
X439000Y456902D01*
X440951Y457290D01*
X442605Y458395D01*
X443710Y460049D01*
X443727Y460136D01*
X444013Y460327D01*
X445343Y461657D01*
X446061Y462732D01*
X446115Y463000D01*
X446500D01*
Y479000D01*
D02*
G37*
G36*
X528000Y456098D02*
X526049Y455710D01*
X524395Y454605D01*
X523290Y452951D01*
X522902Y451000D01*
X523290Y449049D01*
X524395Y447395D01*
X526049Y446290D01*
X528000Y445902D01*
X529951Y446290D01*
X531605Y447395D01*
X531675Y447500D01*
X546000D01*
Y454500D01*
X531675D01*
X531605Y454605D01*
X529951Y455710D01*
X528000Y456098D01*
D02*
G37*
G36*
X433000Y396098D02*
X431049Y395710D01*
X429395Y394605D01*
X429325Y394500D01*
X415000D01*
Y387500D01*
Y379314D01*
X412947D01*
X411679Y379061D01*
X410604Y378343D01*
X409133Y376872D01*
X408000Y377098D01*
X406049Y376710D01*
X404395Y375605D01*
X403290Y373951D01*
X402902Y372000D01*
X403290Y370049D01*
X404395Y368395D01*
X406049Y367290D01*
X408000Y366902D01*
X409951Y367290D01*
X411605Y368395D01*
X412710Y370049D01*
X412965Y371332D01*
X413848Y372215D01*
X415000Y372500D01*
X415000Y372500D01*
Y372500D01*
X415000Y372500D01*
X431000D01*
Y385005D01*
X432270Y386047D01*
X433000Y385902D01*
X434951Y386290D01*
X436605Y387395D01*
X437710Y389049D01*
X438098Y391000D01*
X437710Y392951D01*
X436605Y394605D01*
X434951Y395710D01*
X433000Y396098D01*
D02*
G37*
G36*
X715260Y393450D02*
X696260D01*
Y374450D01*
X715260D01*
Y393450D01*
D02*
G37*
G36*
X705760Y368132D02*
X703280Y367805D01*
X700969Y366848D01*
X698985Y365325D01*
X697462Y363341D01*
X696956Y362118D01*
X690550D01*
X689184Y361847D01*
X688026Y361073D01*
X672477Y345523D01*
X671703Y344366D01*
X671431Y343000D01*
Y264478D01*
X642022Y235069D01*
X393629D01*
X393605Y235105D01*
X391951Y236210D01*
X390000Y236598D01*
X388049Y236210D01*
X386395Y235105D01*
X385290Y233451D01*
X384902Y231500D01*
X385233Y229839D01*
X384534Y228569D01*
X382629D01*
X382605Y228605D01*
X380951Y229710D01*
X379000Y230098D01*
X377049Y229710D01*
X375395Y228605D01*
X374290Y226951D01*
X373902Y225000D01*
X374290Y223049D01*
X375395Y221395D01*
X377049Y220290D01*
X379000Y219902D01*
X380951Y220290D01*
X382605Y221395D01*
X382629Y221431D01*
X395520D01*
X396099Y220161D01*
X395290Y218951D01*
X394902Y217000D01*
X395290Y215049D01*
X396395Y213395D01*
X396686Y213201D01*
Y160799D01*
X396395Y160605D01*
X395290Y158951D01*
X394902Y157000D01*
X395290Y155049D01*
X396395Y153395D01*
X396686Y153201D01*
Y146534D01*
X393939Y143786D01*
X392549Y144192D01*
X392500Y144265D01*
Y159250D01*
X375500D01*
Y143250D01*
X382150D01*
X382955Y142268D01*
X382902Y142000D01*
X383290Y140049D01*
X383601Y139584D01*
X382922Y138314D01*
X377799D01*
X377605Y138605D01*
X375951Y139710D01*
X374000Y140098D01*
X372049Y139710D01*
X370395Y138605D01*
X369290Y136951D01*
X368902Y135000D01*
X369290Y133049D01*
X370395Y131395D01*
X372049Y130290D01*
X374000Y129902D01*
X375951Y130290D01*
X377605Y131395D01*
X377799Y131686D01*
X389839D01*
X391107Y131939D01*
X392182Y132657D01*
X402343Y142818D01*
X403061Y143893D01*
X403122Y144199D01*
X404392Y144074D01*
Y112323D01*
X380677Y88608D01*
X378798D01*
X378652Y89342D01*
X377326Y91326D01*
X375341Y92653D01*
X373000Y93118D01*
X365000D01*
X362659Y92653D01*
X360674Y91326D01*
X359348Y89342D01*
X359096Y88076D01*
X357776Y87946D01*
X357735Y88044D01*
X356132Y90133D01*
X354043Y91736D01*
X351919Y92616D01*
Y123000D01*
X353200D01*
Y147000D01*
X342200D01*
Y123000D01*
X344781D01*
Y92077D01*
X343957Y91736D01*
X341868Y90133D01*
X340265Y88044D01*
X339687Y86649D01*
X338313D01*
X337735Y88044D01*
X336796Y89268D01*
X337523Y89995D01*
X338297Y91153D01*
X338569Y92518D01*
Y123000D01*
X340500D01*
Y147000D01*
X329500D01*
Y123000D01*
X331431D01*
Y93997D01*
X330345Y92910D01*
X329000Y93087D01*
X326390Y92743D01*
X323957Y91736D01*
X321868Y90133D01*
X320265Y88044D01*
X319257Y85611D01*
X318914Y83001D01*
X319257Y80390D01*
X320265Y77958D01*
X321868Y75869D01*
X323957Y74266D01*
X326390Y73258D01*
X329000Y72914D01*
X331610Y73258D01*
X334043Y74266D01*
X336132Y75869D01*
X337735Y77958D01*
X338313Y79352D01*
X339687D01*
X340265Y77958D01*
X341868Y75869D01*
X343957Y74266D01*
X346390Y73258D01*
X349000Y72914D01*
X351610Y73258D01*
X354043Y74266D01*
X356132Y75869D01*
X357735Y77958D01*
X357776Y78056D01*
X359096Y77926D01*
X359348Y76660D01*
X360674Y74675D01*
X362659Y73349D01*
X363140Y73253D01*
Y71070D01*
X358677Y66608D01*
X260323D01*
X256608Y70323D01*
Y73203D01*
X257341Y73349D01*
X259326Y74675D01*
X260652Y76660D01*
X261117Y79001D01*
Y87001D01*
X260652Y89342D01*
X259326Y91326D01*
X257341Y92653D01*
X255000Y93118D01*
X247000D01*
X244659Y92653D01*
X242674Y91326D01*
X241348Y89342D01*
X241096Y88076D01*
X239776Y87946D01*
X239735Y88044D01*
X238132Y90133D01*
X236043Y91736D01*
X233919Y92616D01*
Y123000D01*
X235200D01*
Y147000D01*
X224200D01*
Y123000D01*
X226781D01*
Y92077D01*
X225957Y91736D01*
X223868Y90133D01*
X222265Y88044D01*
X221687Y86649D01*
X220313D01*
X219735Y88044D01*
X218796Y89268D01*
X219523Y89995D01*
X220297Y91153D01*
X220569Y92518D01*
Y123000D01*
X222500D01*
Y147000D01*
X211500D01*
Y123000D01*
X213431D01*
Y93997D01*
X212345Y92910D01*
X211000Y93087D01*
X208389Y92743D01*
X205957Y91736D01*
X203868Y90133D01*
X202265Y88044D01*
X201257Y85611D01*
X200914Y83001D01*
X201257Y80390D01*
X202265Y77958D01*
X203868Y75869D01*
X205957Y74266D01*
X208389Y73258D01*
X211000Y72914D01*
X213610Y73258D01*
X216043Y74266D01*
X218132Y75869D01*
X219735Y77958D01*
X220313Y79352D01*
X221687D01*
X222265Y77958D01*
X223868Y75869D01*
X225957Y74266D01*
X228389Y73258D01*
X231000Y72914D01*
X233610Y73258D01*
X236043Y74266D01*
X238132Y75869D01*
X239735Y77958D01*
X239776Y78056D01*
X241096Y77926D01*
X241348Y76660D01*
X242674Y74675D01*
X244659Y73349D01*
X245392Y73203D01*
Y68000D01*
X245819Y65854D01*
X247035Y64035D01*
X254035Y57035D01*
X255854Y55819D01*
X258000Y55392D01*
X361000D01*
X363146Y55819D01*
X364965Y57035D01*
X372713Y64782D01*
X373928Y66601D01*
X374355Y68747D01*
Y73153D01*
X375341Y73349D01*
X377326Y74675D01*
X378652Y76660D01*
X378798Y77392D01*
X383000D01*
X385146Y77819D01*
X386965Y79035D01*
X413965Y106035D01*
X415181Y107854D01*
X415608Y110000D01*
Y185513D01*
X419487Y189392D01*
X424500D01*
Y186000D01*
X445500D01*
Y189392D01*
X473602D01*
X474500Y188494D01*
X474500Y186000D01*
X473401Y185588D01*
X456133D01*
X455951Y185710D01*
X454000Y186098D01*
X452049Y185710D01*
X450395Y184605D01*
X449290Y182951D01*
X448902Y181000D01*
X449290Y179049D01*
X450395Y177395D01*
X452049Y176290D01*
X454000Y175902D01*
X455951Y176290D01*
X456133Y176412D01*
X501867D01*
X502049Y176290D01*
X504000Y175902D01*
X505951Y176290D01*
X506133Y176412D01*
X566867D01*
X567049Y176290D01*
X569000Y175902D01*
X570951Y176290D01*
X571133Y176412D01*
X616867D01*
X617049Y176290D01*
X619000Y175902D01*
X620951Y176290D01*
X621133Y176412D01*
X681867D01*
X682049Y176290D01*
X684000Y175902D01*
X685951Y176290D01*
X686133Y176412D01*
X731867D01*
X732049Y176290D01*
X734000Y175902D01*
X735951Y176290D01*
X736133Y176412D01*
X796867D01*
X797049Y176290D01*
X799000Y175902D01*
X800951Y176290D01*
X801133Y176412D01*
X846867D01*
X847049Y176290D01*
X849000Y175902D01*
X850951Y176290D01*
X852605Y177395D01*
X853710Y179049D01*
X854098Y181000D01*
X853710Y182951D01*
X852605Y184605D01*
X850951Y185710D01*
X849000Y186098D01*
X847049Y185710D01*
X846867Y185588D01*
X841599D01*
X840500Y186000D01*
X840500Y186858D01*
Y189392D01*
X877677D01*
X886579Y180490D01*
X885873Y178785D01*
X885375Y175000D01*
X885873Y171215D01*
X887334Y167687D01*
X889659Y164659D01*
X892687Y162334D01*
X894392Y161628D01*
Y138771D01*
X893750D01*
X891596Y138488D01*
X889589Y137656D01*
X887866Y136334D01*
X886544Y134611D01*
X885712Y132604D01*
X885429Y130450D01*
Y117950D01*
X885712Y115796D01*
X886544Y113789D01*
X887866Y112066D01*
X889589Y110744D01*
X891596Y109912D01*
X893750Y109629D01*
X906250D01*
X908404Y109912D01*
X910411Y110744D01*
X912134Y112066D01*
X913456Y113789D01*
X914288Y115796D01*
X914571Y117950D01*
Y130450D01*
X914288Y132604D01*
X913456Y134611D01*
X912134Y136334D01*
X910411Y137656D01*
X908404Y138488D01*
X906250Y138771D01*
X905608D01*
Y161628D01*
X907313Y162334D01*
X910341Y164659D01*
X912666Y167687D01*
X914127Y171215D01*
X914625Y175000D01*
X914127Y178785D01*
X912666Y182313D01*
X910341Y185341D01*
X907313Y187666D01*
X903785Y189127D01*
X900000Y189625D01*
X896215Y189127D01*
X894510Y188421D01*
X883965Y198965D01*
X882146Y200181D01*
X880000Y200608D01*
X840500D01*
Y204000D01*
X819500D01*
Y200608D01*
X790500D01*
Y204000D01*
X769500D01*
Y200608D01*
X725500D01*
Y204000D01*
X704500D01*
Y200608D01*
X675500D01*
Y204000D01*
X654500D01*
Y200608D01*
X610500D01*
Y204000D01*
X589500D01*
Y200608D01*
X560500D01*
Y204000D01*
X539500D01*
Y200608D01*
X495500D01*
Y204000D01*
X474500D01*
Y200608D01*
X445500D01*
Y204000D01*
X424500D01*
Y200608D01*
X417165D01*
X415019Y200181D01*
X413199Y198965D01*
X406035Y191801D01*
X404819Y189981D01*
X404584Y188797D01*
X403314Y188923D01*
Y213201D01*
X403605Y213395D01*
X404710Y215049D01*
X405098Y217000D01*
X404710Y218951D01*
X403901Y220161D01*
X404480Y221431D01*
X653000D01*
X654366Y221703D01*
X655523Y222477D01*
X688523Y255477D01*
X689297Y256634D01*
X689569Y258000D01*
Y322522D01*
X695888Y328841D01*
X697386Y328543D01*
X697462Y328359D01*
X698985Y326374D01*
X700969Y324851D01*
X703280Y323894D01*
X705760Y323568D01*
X708240Y323894D01*
X710551Y324851D01*
X712536Y326374D01*
X714058Y328359D01*
X715016Y330670D01*
X715342Y333150D01*
X715016Y335630D01*
X714058Y337941D01*
X712536Y339925D01*
X710551Y341448D01*
X708240Y342405D01*
X705760Y342732D01*
X703280Y342405D01*
X700969Y341448D01*
X698985Y339925D01*
X697462Y337941D01*
X696956Y336718D01*
X695150D01*
X693784Y336447D01*
X692626Y335673D01*
X683477Y326523D01*
X682703Y325366D01*
X682431Y324000D01*
Y259478D01*
X651522Y228569D01*
X647411D01*
X646885Y229839D01*
X677523Y260477D01*
X678297Y261634D01*
X678569Y263000D01*
Y341522D01*
X692028Y354981D01*
X696956D01*
X697462Y353759D01*
X698985Y351774D01*
X700969Y350252D01*
X703280Y349294D01*
X705760Y348968D01*
X708240Y349294D01*
X710551Y350252D01*
X712536Y351774D01*
X714058Y353759D01*
X715016Y356070D01*
X715342Y358550D01*
X715016Y361030D01*
X714058Y363341D01*
X712536Y365325D01*
X710551Y366848D01*
X708240Y367805D01*
X705760Y368132D01*
D02*
G37*
G36*
X446500Y364000D02*
X439500D01*
Y348000D01*
X439686D01*
Y344799D01*
X439395Y344605D01*
X438290Y342951D01*
X437902Y341000D01*
X438290Y339049D01*
X439395Y337395D01*
X441049Y336290D01*
X443000Y335902D01*
X444951Y336290D01*
X446605Y337395D01*
X447710Y339049D01*
X448098Y341000D01*
X447710Y342951D01*
X446605Y344605D01*
X446314Y344799D01*
Y348000D01*
X446500D01*
Y364000D01*
D02*
G37*
G36*
X522000Y370098D02*
X520049Y369710D01*
X518395Y368605D01*
X517290Y366951D01*
X517177Y366380D01*
X517121Y366343D01*
X515657Y364879D01*
X515070Y364000D01*
X514500D01*
Y348000D01*
X521500D01*
Y359492D01*
X522000Y359902D01*
X523951Y360290D01*
X525605Y361395D01*
X525799Y361686D01*
X541628D01*
X553686Y349627D01*
Y335799D01*
X553395Y335605D01*
X552290Y333951D01*
X551902Y332000D01*
X552290Y330049D01*
X553395Y328395D01*
X555049Y327290D01*
X557000Y326902D01*
X558951Y327290D01*
X560605Y328395D01*
X561710Y330049D01*
X562098Y332000D01*
X561710Y333951D01*
X560605Y335605D01*
X560314Y335799D01*
Y351000D01*
X560061Y352268D01*
X559343Y353343D01*
X545343Y367343D01*
X544268Y368061D01*
X543000Y368314D01*
X525799D01*
X525605Y368605D01*
X523951Y369710D01*
X522000Y370098D01*
D02*
G37*
G36*
X640000Y309000D02*
X640000Y309000D01*
X625270D01*
X624000Y309000D01*
X624000Y309000D01*
X616000D01*
Y295000D01*
X616431D01*
Y293629D01*
X616395Y293605D01*
X615290Y291951D01*
X614902Y290000D01*
X615290Y288049D01*
X616395Y286395D01*
X618049Y285290D01*
X620000Y284902D01*
X621951Y285290D01*
X622193Y285452D01*
X622331Y285389D01*
X623223Y284613D01*
X622902Y283000D01*
X623290Y281049D01*
X624395Y279395D01*
X626049Y278290D01*
X628000Y277902D01*
X629951Y278290D01*
X631605Y279395D01*
X632710Y281049D01*
X633098Y283000D01*
X632777Y284613D01*
X633669Y285389D01*
X633806Y285452D01*
X634049Y285290D01*
X636000Y284902D01*
X637951Y285290D01*
X638194Y285452D01*
X638331Y285389D01*
X639223Y284613D01*
X638902Y283000D01*
X639290Y281049D01*
X640395Y279395D01*
X642049Y278290D01*
X644000Y277902D01*
X645951Y278290D01*
X647605Y279395D01*
X648710Y281049D01*
X649098Y283000D01*
X648710Y284951D01*
X647605Y286605D01*
X647569Y286629D01*
Y295000D01*
X648000D01*
Y309000D01*
X641270D01*
X640000Y309000D01*
Y309000D01*
D02*
G37*
G36*
X594000Y309000D02*
X594000Y309000D01*
X579270D01*
X578000Y309000D01*
X578000Y309000D01*
X570000D01*
Y295000D01*
X570431D01*
Y293629D01*
X570395Y293605D01*
X569290Y291951D01*
X568902Y290000D01*
X569290Y288049D01*
X570395Y286395D01*
X572049Y285290D01*
X574000Y284902D01*
X575951Y285290D01*
X576194Y285452D01*
X576331Y285389D01*
X577223Y284613D01*
X576902Y283000D01*
X577290Y281049D01*
X578395Y279395D01*
X580049Y278290D01*
X582000Y277902D01*
X583951Y278290D01*
X585605Y279395D01*
X586710Y281049D01*
X587098Y283000D01*
X586777Y284613D01*
X587669Y285389D01*
X587807Y285452D01*
X588049Y285290D01*
X590000Y284902D01*
X591951Y285290D01*
X592193Y285452D01*
X592331Y285389D01*
X593223Y284613D01*
X592902Y283000D01*
X593290Y281049D01*
X594395Y279395D01*
X596049Y278290D01*
X598000Y277902D01*
X599951Y278290D01*
X601605Y279395D01*
X602710Y281049D01*
X603098Y283000D01*
X602710Y284951D01*
X601605Y286605D01*
X601569Y286629D01*
Y295000D01*
X602000D01*
Y309000D01*
X595270D01*
X594000Y309000D01*
Y309000D01*
D02*
G37*
G36*
X705760Y317332D02*
X703280Y317005D01*
X700969Y316048D01*
X698985Y314525D01*
X697462Y312541D01*
X696505Y310230D01*
X696178Y307750D01*
X696505Y305270D01*
X697462Y302959D01*
X698985Y300974D01*
X700969Y299452D01*
X703280Y298494D01*
X705760Y298168D01*
X708240Y298494D01*
X710551Y299452D01*
X712536Y300974D01*
X714058Y302959D01*
X715016Y305270D01*
X715342Y307750D01*
X715016Y310230D01*
X714058Y312541D01*
X712536Y314525D01*
X710551Y316048D01*
X708240Y317005D01*
X705760Y317332D01*
D02*
G37*
G36*
X319500Y305000D02*
X306500D01*
Y303569D01*
X217000D01*
X215634Y303297D01*
X214477Y302523D01*
X157043Y245089D01*
X157000Y245098D01*
X155049Y244710D01*
X153395Y243605D01*
X152290Y241951D01*
X151902Y240000D01*
X152290Y238049D01*
X153395Y236395D01*
X155049Y235290D01*
X157000Y234902D01*
X158951Y235290D01*
X160605Y236395D01*
X161710Y238049D01*
X162098Y240000D01*
X162089Y240043D01*
X218478Y296431D01*
X306500D01*
Y295000D01*
X319500D01*
Y305000D01*
D02*
G37*
G36*
X453000Y371098D02*
X451049Y370710D01*
X449395Y369605D01*
X448290Y367951D01*
X447902Y366000D01*
X448290Y364049D01*
X449395Y362395D01*
X449500Y362325D01*
Y348000D01*
X494686D01*
Y326461D01*
X436815Y268590D01*
X436804Y268595D01*
X435768Y269339D01*
X436098Y271000D01*
X435710Y272951D01*
X434605Y274605D01*
X432951Y275710D01*
X431000Y276098D01*
X429049Y275710D01*
X427395Y274605D01*
X426290Y272951D01*
X425902Y271000D01*
X425970Y270657D01*
X420322Y265008D01*
X414627Y259314D01*
X230000D01*
X228732Y259061D01*
X227657Y258343D01*
X201807Y232493D01*
X201089Y231418D01*
X200836Y230150D01*
Y204150D01*
X198800D01*
Y195719D01*
X185150D01*
X183784Y195447D01*
X182627Y194673D01*
X178477Y190523D01*
X177703Y189366D01*
X177431Y188000D01*
Y182000D01*
X172584D01*
X172500Y182000D01*
X171314Y182202D01*
Y192628D01*
X190657Y211970D01*
X191000Y211902D01*
X192951Y212290D01*
X194605Y213395D01*
X195710Y215049D01*
X196098Y217000D01*
X195710Y218951D01*
X194605Y220605D01*
X192951Y221710D01*
X191000Y222098D01*
X189049Y221710D01*
X187395Y220605D01*
X186290Y218951D01*
X185902Y217000D01*
X185970Y216657D01*
X165657Y196343D01*
X164939Y195268D01*
X164686Y194000D01*
Y145023D01*
X164584Y144946D01*
X163314Y145580D01*
Y201628D01*
X228373Y266686D01*
X405000D01*
X406268Y266939D01*
X407343Y267657D01*
X424670Y284984D01*
X424995Y284952D01*
X426017Y283576D01*
X425902Y283000D01*
X426290Y281049D01*
X427395Y279395D01*
X429049Y278290D01*
X431000Y277902D01*
X432951Y278290D01*
X434605Y279395D01*
X435710Y281049D01*
X436098Y283000D01*
X436030Y283343D01*
X439034Y286348D01*
X445758D01*
X447026Y286600D01*
X448101Y287319D01*
X466343Y305561D01*
X467061Y306636D01*
X467314Y307904D01*
Y337201D01*
X467605Y337395D01*
X468710Y339049D01*
X469098Y341000D01*
X468710Y342951D01*
X467605Y344605D01*
X465951Y345710D01*
X464000Y346098D01*
X462049Y345710D01*
X460395Y344605D01*
X459290Y342951D01*
X458902Y341000D01*
X459290Y339049D01*
X460395Y337395D01*
X460686Y337201D01*
Y309276D01*
X444385Y292975D01*
X437662D01*
X436394Y292723D01*
X435319Y292005D01*
X431343Y288030D01*
X431000Y288098D01*
X430424Y287983D01*
X429048Y289005D01*
X429016Y289330D01*
X429343Y289657D01*
X430061Y290732D01*
X430314Y292000D01*
Y295000D01*
X433500D01*
Y305000D01*
X420500D01*
Y295000D01*
X423686D01*
Y293373D01*
X403628Y273314D01*
X227000D01*
X225732Y273061D01*
X224657Y272343D01*
X157657Y205343D01*
X157584Y205233D01*
X156314Y205619D01*
Y207628D01*
X223373Y274686D01*
X375000D01*
X376268Y274939D01*
X377343Y275657D01*
X391184Y289497D01*
X391902Y290572D01*
X392154Y291840D01*
Y295000D01*
X395340D01*
Y305000D01*
X382341D01*
Y295000D01*
X385527D01*
Y293213D01*
X373628Y281314D01*
X222000D01*
X220732Y281061D01*
X219657Y280343D01*
X151584Y212270D01*
X150314Y212796D01*
Y214627D01*
X218373Y282686D01*
X345000D01*
X346268Y282939D01*
X347343Y283657D01*
X353343Y289657D01*
X354061Y290732D01*
X354314Y292000D01*
Y295000D01*
X357500D01*
Y305000D01*
X344500D01*
Y295000D01*
X347686D01*
Y293373D01*
X343628Y289314D01*
X217000D01*
X215732Y289061D01*
X214657Y288343D01*
X144657Y218343D01*
X143939Y217268D01*
X143686Y216000D01*
Y134373D01*
X139628Y130314D01*
X136451D01*
X135735Y132043D01*
X134132Y134132D01*
X132043Y135735D01*
X131945Y135776D01*
X132075Y137096D01*
X133341Y137348D01*
X135326Y138674D01*
X136652Y140659D01*
X137118Y143000D01*
Y151000D01*
X136652Y153341D01*
X135326Y155326D01*
X133341Y156652D01*
X131000Y157118D01*
X123000D01*
X120659Y156652D01*
X118674Y155326D01*
X117348Y153341D01*
X116882Y151000D01*
Y143000D01*
X117348Y140659D01*
X118674Y138674D01*
X120659Y137348D01*
X121925Y137096D01*
X122055Y135776D01*
X121957Y135735D01*
X119868Y134132D01*
X118265Y132043D01*
X117257Y129611D01*
X116914Y127000D01*
X117257Y124389D01*
X118265Y121957D01*
X119868Y119868D01*
X121957Y118265D01*
X123352Y117687D01*
Y116313D01*
X121957Y115735D01*
X119868Y114132D01*
X118265Y112043D01*
X117257Y109611D01*
X116914Y107000D01*
X117257Y104389D01*
X118265Y101957D01*
X119868Y99868D01*
X121957Y98265D01*
X123352Y97687D01*
Y96313D01*
X121957Y95735D01*
X119868Y94132D01*
X118265Y92043D01*
X117257Y89611D01*
X116914Y87000D01*
X117257Y84389D01*
X118265Y81957D01*
X119868Y79868D01*
X121957Y78265D01*
X124389Y77257D01*
X127000Y76914D01*
X129611Y77257D01*
X132043Y78265D01*
X134132Y79868D01*
X135735Y81957D01*
X136451Y83686D01*
X141000D01*
X142268Y83939D01*
X143343Y84657D01*
X162343Y103657D01*
X163061Y104732D01*
X163314Y106000D01*
Y135902D01*
X164584Y136269D01*
X166049Y135290D01*
X168000Y134902D01*
X169951Y135290D01*
X171605Y136395D01*
X172710Y138049D01*
X173098Y140000D01*
X172710Y141951D01*
X172691Y141980D01*
X173370Y143250D01*
X189500D01*
Y159250D01*
X186751D01*
X185945Y160231D01*
X186098Y161000D01*
X185710Y162951D01*
X184605Y164605D01*
X184417Y164730D01*
X184803Y166000D01*
X189500D01*
Y182000D01*
X184569D01*
Y186522D01*
X186628Y188581D01*
X198800D01*
Y180150D01*
X209800D01*
Y204150D01*
X207464D01*
Y228778D01*
X231373Y252686D01*
X238204D01*
X238730Y251416D01*
X227357Y240043D01*
X226639Y238968D01*
X226386Y237700D01*
Y204150D01*
X224200D01*
Y195464D01*
X222500D01*
Y204150D01*
X211500D01*
Y180150D01*
X222500D01*
Y188836D01*
X224200D01*
Y180150D01*
X235200D01*
Y204150D01*
X233014D01*
Y236327D01*
X243372Y246686D01*
X249204D01*
X249730Y245416D01*
X240057Y235743D01*
X239339Y234668D01*
X239086Y233400D01*
Y204150D01*
X236900D01*
Y180150D01*
X247900D01*
Y188581D01*
X260372D01*
X262431Y186522D01*
Y182000D01*
X257500D01*
Y166000D01*
X274500D01*
Y182000D01*
X269569D01*
Y188000D01*
X269297Y189366D01*
X268523Y190523D01*
X264373Y194673D01*
X263216Y195447D01*
X261850Y195719D01*
X247900D01*
Y204150D01*
X245714D01*
Y232027D01*
X254373Y240686D01*
X432000D01*
X433268Y240939D01*
X434343Y241657D01*
X443373Y250686D01*
X472000D01*
X473268Y250939D01*
X474343Y251657D01*
X510343Y287657D01*
X511061Y288732D01*
X511314Y290000D01*
Y348000D01*
X511500D01*
Y364000D01*
X458995D01*
X457953Y365270D01*
X458098Y366000D01*
X457710Y367951D01*
X456605Y369605D01*
X454951Y370710D01*
X453000Y371098D01*
D02*
G37*
G36*
X335000Y236098D02*
X333049Y235710D01*
X331395Y234605D01*
X330290Y232951D01*
X329902Y231000D01*
X330290Y229049D01*
X331395Y227395D01*
X331431Y227371D01*
Y204150D01*
X329500D01*
Y180150D01*
X340500D01*
Y188581D01*
X342200D01*
Y180150D01*
X353200D01*
Y204150D01*
X342200D01*
Y195719D01*
X340500D01*
Y204150D01*
X338569D01*
Y227371D01*
X338605Y227395D01*
X339710Y229049D01*
X340098Y231000D01*
X339710Y232951D01*
X338605Y234605D01*
X336951Y235710D01*
X335000Y236098D01*
D02*
G37*
G36*
X322000D02*
X320049Y235710D01*
X318395Y234605D01*
X317290Y232951D01*
X316902Y231000D01*
X317290Y229049D01*
X318395Y227395D01*
X318431Y227371D01*
Y204150D01*
X316800D01*
Y195719D01*
X303150D01*
X301784Y195447D01*
X300627Y194673D01*
X296477Y190523D01*
X295703Y189366D01*
X295431Y188000D01*
Y182000D01*
X290500D01*
Y166000D01*
X295197D01*
X295583Y164730D01*
X295395Y164605D01*
X294290Y162951D01*
X293902Y161000D01*
X294055Y160231D01*
X293249Y159250D01*
X290500D01*
Y143250D01*
X307500D01*
Y159250D01*
X304751D01*
X303945Y160231D01*
X304098Y161000D01*
X303710Y162951D01*
X302605Y164605D01*
X302417Y164730D01*
X302803Y166000D01*
X307500D01*
Y182000D01*
X302569D01*
Y186522D01*
X304628Y188581D01*
X316800D01*
Y180150D01*
X327800D01*
Y204150D01*
X325569D01*
Y227371D01*
X325605Y227395D01*
X326710Y229049D01*
X327098Y231000D01*
X326710Y232951D01*
X325605Y234605D01*
X323951Y235710D01*
X322000Y236098D01*
D02*
G37*
G36*
X360000D02*
X358049Y235710D01*
X356395Y234605D01*
X355290Y232951D01*
X354902Y231000D01*
X355290Y229049D01*
X356395Y227395D01*
X356431Y227371D01*
Y204150D01*
X354900D01*
Y180150D01*
X365900D01*
Y188581D01*
X378372D01*
X380431Y186522D01*
Y182000D01*
X375500D01*
Y166000D01*
X392500D01*
Y182000D01*
X387569D01*
Y188000D01*
X387297Y189366D01*
X386523Y190523D01*
X382373Y194673D01*
X381216Y195447D01*
X379850Y195719D01*
X365900D01*
Y204150D01*
X363569D01*
Y227371D01*
X363605Y227395D01*
X364710Y229049D01*
X365098Y231000D01*
X364710Y232951D01*
X363605Y234605D01*
X361951Y235710D01*
X360000Y236098D01*
D02*
G37*
G36*
X282000Y222098D02*
X280049Y221710D01*
X278395Y220605D01*
X277290Y218951D01*
X276902Y217000D01*
X277290Y215049D01*
X278395Y213395D01*
X278686Y213201D01*
Y160799D01*
X278395Y160605D01*
X277290Y158951D01*
X276902Y157000D01*
X277290Y155049D01*
X278395Y153395D01*
X278686Y153201D01*
Y146799D01*
X278395Y146605D01*
X277290Y144951D01*
X276902Y143000D01*
X276171Y142351D01*
X274939Y142799D01*
X274710Y143951D01*
X274500Y144265D01*
Y159250D01*
X257500D01*
Y143250D01*
X264150D01*
X264955Y142268D01*
X264902Y142000D01*
X265290Y140049D01*
X265601Y139584D01*
X264922Y138314D01*
X257799D01*
X257605Y138605D01*
X255951Y139710D01*
X254000Y140098D01*
X252049Y139710D01*
X250395Y138605D01*
X249290Y136951D01*
X249170Y136347D01*
X247900Y136472D01*
Y147000D01*
X247900Y147000D01*
X247900D01*
X247949Y148250D01*
X248098Y149000D01*
X247710Y150951D01*
X246605Y152605D01*
X244951Y153710D01*
X243000Y154098D01*
X241049Y153710D01*
X239395Y152605D01*
X238290Y150951D01*
X237902Y149000D01*
X238047Y148270D01*
X237005Y147000D01*
X236900D01*
Y123000D01*
X247900D01*
Y133528D01*
X249170Y133653D01*
X249290Y133049D01*
X250395Y131395D01*
X252049Y130290D01*
X254000Y129902D01*
X255951Y130290D01*
X257605Y131395D01*
X257799Y131686D01*
X274000D01*
X275268Y131939D01*
X276343Y132657D01*
X281657Y137970D01*
X282000Y137902D01*
X283951Y138290D01*
X285605Y139395D01*
X286710Y141049D01*
X287098Y143000D01*
X286710Y144951D01*
X285605Y146605D01*
X285314Y146799D01*
Y153201D01*
X285605Y153395D01*
X286710Y155049D01*
X287098Y157000D01*
X286710Y158951D01*
X285605Y160605D01*
X285314Y160799D01*
Y213201D01*
X285605Y213395D01*
X286710Y215049D01*
X287098Y217000D01*
X286710Y218951D01*
X285605Y220605D01*
X283951Y221710D01*
X282000Y222098D01*
D02*
G37*
G36*
X361000Y154098D02*
X359049Y153710D01*
X357395Y152605D01*
X356290Y150951D01*
X355902Y149000D01*
X356047Y148270D01*
X355005Y147000D01*
X354900D01*
Y123000D01*
X365900D01*
Y147000D01*
X365900Y147000D01*
X365900D01*
X365949Y148250D01*
X366098Y149000D01*
X365710Y150951D01*
X364605Y152605D01*
X362951Y153710D01*
X361000Y154098D01*
D02*
G37*
G36*
X840500Y160000D02*
X819500D01*
Y142000D01*
X825412D01*
Y121133D01*
X825290Y120951D01*
X824902Y119000D01*
X825290Y117049D01*
X826395Y115395D01*
X828049Y114290D01*
X830000Y113902D01*
X831951Y114290D01*
X833605Y115395D01*
X834710Y117049D01*
X835098Y119000D01*
X834710Y120951D01*
X834588Y121133D01*
Y142000D01*
X840500D01*
Y160000D01*
D02*
G37*
G36*
X790500D02*
X769500D01*
Y142000D01*
X775412D01*
Y121133D01*
X775290Y120951D01*
X774902Y119000D01*
X775290Y117049D01*
X776395Y115395D01*
X778049Y114290D01*
X780000Y113902D01*
X781951Y114290D01*
X783605Y115395D01*
X784710Y117049D01*
X785098Y119000D01*
X784710Y120951D01*
X784588Y121133D01*
Y142000D01*
X790500D01*
Y160000D01*
D02*
G37*
G36*
X725500D02*
X704500D01*
Y142000D01*
X710412D01*
Y121133D01*
X710290Y120951D01*
X709902Y119000D01*
X710290Y117049D01*
X711395Y115395D01*
X713049Y114290D01*
X715000Y113902D01*
X716951Y114290D01*
X718605Y115395D01*
X719710Y117049D01*
X720098Y119000D01*
X719710Y120951D01*
X719588Y121133D01*
Y142000D01*
X725500D01*
Y160000D01*
D02*
G37*
G36*
X675500D02*
X654500D01*
Y142000D01*
X660412D01*
Y121133D01*
X660290Y120951D01*
X659902Y119000D01*
X660290Y117049D01*
X661395Y115395D01*
X663049Y114290D01*
X665000Y113902D01*
X666951Y114290D01*
X668605Y115395D01*
X669710Y117049D01*
X670098Y119000D01*
X669710Y120951D01*
X669588Y121133D01*
Y142000D01*
X675500D01*
Y160000D01*
D02*
G37*
G36*
X610500D02*
X589500D01*
Y142000D01*
X595412D01*
Y121133D01*
X595290Y120951D01*
X594902Y119000D01*
X595290Y117049D01*
X596395Y115395D01*
X598049Y114290D01*
X600000Y113902D01*
X601951Y114290D01*
X603605Y115395D01*
X604710Y117049D01*
X605098Y119000D01*
X604710Y120951D01*
X604588Y121133D01*
Y142000D01*
X610500D01*
Y160000D01*
D02*
G37*
G36*
X560500D02*
X539500D01*
Y142000D01*
X545412D01*
Y121133D01*
X545290Y120951D01*
X544902Y119000D01*
X545290Y117049D01*
X546395Y115395D01*
X548049Y114290D01*
X550000Y113902D01*
X551951Y114290D01*
X553605Y115395D01*
X554710Y117049D01*
X555098Y119000D01*
X554710Y120951D01*
X554588Y121133D01*
Y142000D01*
X560500D01*
Y160000D01*
D02*
G37*
G36*
X495500D02*
X474500D01*
Y142000D01*
X480412D01*
Y121133D01*
X480290Y120951D01*
X479902Y119000D01*
X480290Y117049D01*
X481395Y115395D01*
X483049Y114290D01*
X485000Y113902D01*
X486951Y114290D01*
X488605Y115395D01*
X489710Y117049D01*
X490098Y119000D01*
X489710Y120951D01*
X489588Y121133D01*
Y142000D01*
X495500D01*
Y160000D01*
D02*
G37*
G36*
X445500D02*
X424500D01*
Y142000D01*
X430412D01*
Y121133D01*
X430290Y120951D01*
X429902Y119000D01*
X430290Y117049D01*
X431395Y115395D01*
X433049Y114290D01*
X435000Y113902D01*
X436951Y114290D01*
X438605Y115395D01*
X439710Y117049D01*
X440098Y119000D01*
X439710Y120951D01*
X439588Y121133D01*
Y142000D01*
X445500D01*
Y160000D01*
D02*
G37*
G36*
X51300Y121704D02*
X46043Y121290D01*
X40916Y120059D01*
X36044Y118041D01*
X31548Y115286D01*
X27539Y111861D01*
X24114Y107852D01*
X21359Y103356D01*
X19341Y98484D01*
X18110Y93357D01*
X17696Y88100D01*
X18110Y82843D01*
X19341Y77716D01*
X21359Y72844D01*
X24114Y68348D01*
X27539Y64339D01*
X31548Y60914D01*
X36044Y58159D01*
X40916Y56141D01*
X46043Y54910D01*
X51300Y54496D01*
X56557Y54910D01*
X61684Y56141D01*
X66556Y58159D01*
X71052Y60914D01*
X75061Y64339D01*
X78486Y68348D01*
X81241Y72844D01*
X83259Y77716D01*
X84490Y82843D01*
X84904Y88100D01*
X84490Y93357D01*
X83259Y98484D01*
X81241Y103356D01*
X78486Y107852D01*
X75061Y111861D01*
X71052Y115286D01*
X66556Y118041D01*
X61684Y120059D01*
X56557Y121290D01*
X51300Y121704D01*
D02*
G37*
G36*
X785450Y74571D02*
X772950D01*
X770796Y74288D01*
X768789Y73456D01*
X767066Y72134D01*
X765744Y70411D01*
X764912Y68404D01*
X764629Y66250D01*
Y53750D01*
X764912Y51596D01*
X765744Y49589D01*
X767066Y47866D01*
X768789Y46544D01*
X770796Y45712D01*
X772950Y45429D01*
X785450D01*
X787604Y45712D01*
X789611Y46544D01*
X791334Y47866D01*
X792656Y49589D01*
X793488Y51596D01*
X793771Y53750D01*
Y66250D01*
X793488Y68404D01*
X792656Y70411D01*
X791334Y72134D01*
X789611Y73456D01*
X787604Y74288D01*
X785450Y74571D01*
D02*
G37*
G36*
X670450D02*
X657950D01*
X655796Y74288D01*
X653789Y73456D01*
X652066Y72134D01*
X650744Y70411D01*
X649912Y68404D01*
X649629Y66250D01*
Y53750D01*
X649912Y51596D01*
X650744Y49589D01*
X652066Y47866D01*
X653789Y46544D01*
X655796Y45712D01*
X657950Y45429D01*
X670450D01*
X672604Y45712D01*
X674611Y46544D01*
X676334Y47866D01*
X677656Y49589D01*
X678488Y51596D01*
X678771Y53750D01*
Y66250D01*
X678488Y68404D01*
X677656Y70411D01*
X676334Y72134D01*
X674611Y73456D01*
X672604Y74288D01*
X670450Y74571D01*
D02*
G37*
G36*
X555450D02*
X542950D01*
X540796Y74288D01*
X538789Y73456D01*
X537066Y72134D01*
X535744Y70411D01*
X534912Y68404D01*
X534629Y66250D01*
Y53750D01*
X534912Y51596D01*
X535744Y49589D01*
X537066Y47866D01*
X538789Y46544D01*
X540796Y45712D01*
X542950Y45429D01*
X555450D01*
X557604Y45712D01*
X559611Y46544D01*
X561334Y47866D01*
X562656Y49589D01*
X563488Y51596D01*
X563771Y53750D01*
Y66250D01*
X563488Y68404D01*
X562656Y70411D01*
X561334Y72134D01*
X559611Y73456D01*
X557604Y74288D01*
X555450Y74571D01*
D02*
G37*
G36*
X440450D02*
X427950D01*
X425796Y74288D01*
X423789Y73456D01*
X422066Y72134D01*
X420744Y70411D01*
X419912Y68404D01*
X419629Y66250D01*
Y53750D01*
X419912Y51596D01*
X420744Y49589D01*
X422066Y47866D01*
X423789Y46544D01*
X425796Y45712D01*
X427950Y45429D01*
X440450D01*
X442604Y45712D01*
X444611Y46544D01*
X446334Y47866D01*
X447656Y49589D01*
X448488Y51596D01*
X448771Y53750D01*
Y66250D01*
X448488Y68404D01*
X447656Y70411D01*
X446334Y72134D01*
X444611Y73456D01*
X442604Y74288D01*
X440450Y74571D01*
D02*
G37*
G36*
X830000Y74625D02*
X826215Y74127D01*
X822687Y72666D01*
X819659Y70342D01*
X817334Y67313D01*
X815873Y63785D01*
X815375Y60000D01*
X815873Y56215D01*
X817334Y52687D01*
X819659Y49658D01*
X822687Y47334D01*
X826215Y45873D01*
X830000Y45375D01*
X833785Y45873D01*
X837312Y47334D01*
X840341Y49658D01*
X842666Y52687D01*
X844127Y56215D01*
X844625Y60000D01*
X844127Y63785D01*
X842666Y67313D01*
X840341Y70342D01*
X837312Y72666D01*
X833785Y74127D01*
X830000Y74625D01*
D02*
G37*
G36*
X715000D02*
X711215Y74127D01*
X707687Y72666D01*
X704659Y70342D01*
X702334Y67313D01*
X700873Y63785D01*
X700375Y60000D01*
X700873Y56215D01*
X702334Y52687D01*
X704659Y49658D01*
X707687Y47334D01*
X711215Y45873D01*
X715000Y45375D01*
X718785Y45873D01*
X722313Y47334D01*
X725341Y49658D01*
X727666Y52687D01*
X729127Y56215D01*
X729625Y60000D01*
X729127Y63785D01*
X727666Y67313D01*
X725341Y70342D01*
X722313Y72666D01*
X718785Y74127D01*
X715000Y74625D01*
D02*
G37*
G36*
X600000D02*
X596215Y74127D01*
X592687Y72666D01*
X589659Y70342D01*
X587334Y67313D01*
X585873Y63785D01*
X585375Y60000D01*
X585873Y56215D01*
X587334Y52687D01*
X589659Y49658D01*
X592687Y47334D01*
X596215Y45873D01*
X600000Y45375D01*
X603785Y45873D01*
X607313Y47334D01*
X610341Y49658D01*
X612666Y52687D01*
X614127Y56215D01*
X614625Y60000D01*
X614127Y63785D01*
X612666Y67313D01*
X610341Y70342D01*
X607313Y72666D01*
X603785Y74127D01*
X600000Y74625D01*
D02*
G37*
G36*
X485000D02*
X481215Y74127D01*
X477687Y72666D01*
X474659Y70342D01*
X472334Y67313D01*
X470873Y63785D01*
X470375Y60000D01*
X470873Y56215D01*
X472334Y52687D01*
X474659Y49658D01*
X477687Y47334D01*
X481215Y45873D01*
X485000Y45375D01*
X488785Y45873D01*
X492313Y47334D01*
X495341Y49658D01*
X497666Y52687D01*
X499127Y56215D01*
X499625Y60000D01*
X499127Y63785D01*
X497666Y67313D01*
X495341Y70342D01*
X492313Y72666D01*
X488785Y74127D01*
X485000Y74625D01*
D02*
G37*
G36*
X340000Y48086D02*
X337389Y47743D01*
X334957Y46735D01*
X332868Y45132D01*
X331265Y43043D01*
X330687Y41648D01*
X329313D01*
X328735Y43043D01*
X327132Y45132D01*
X325043Y46735D01*
X322611Y47743D01*
X320000Y48086D01*
X317390Y47743D01*
X314957Y46735D01*
X312868Y45132D01*
X311265Y43043D01*
X310687Y41648D01*
X309313D01*
X308735Y43043D01*
X307132Y45132D01*
X305043Y46735D01*
X302610Y47743D01*
X300000Y48086D01*
X297390Y47743D01*
X294957Y46735D01*
X292868Y45132D01*
X291265Y43043D01*
X290257Y40610D01*
X289914Y38000D01*
X290257Y35389D01*
X291265Y32957D01*
X292868Y30868D01*
X294957Y29265D01*
X297390Y28257D01*
X300000Y27914D01*
X302610Y28257D01*
X305043Y29265D01*
X307132Y30868D01*
X308735Y32957D01*
X309313Y34352D01*
X310687D01*
X311265Y32957D01*
X312868Y30868D01*
X314957Y29265D01*
X317390Y28257D01*
X320000Y27914D01*
X322611Y28257D01*
X325043Y29265D01*
X327132Y30868D01*
X328735Y32957D01*
X329313Y34352D01*
X330687D01*
X331265Y32957D01*
X332868Y30868D01*
X334957Y29265D01*
X337389Y28257D01*
X340000Y27914D01*
X342611Y28257D01*
X345043Y29265D01*
X347132Y30868D01*
X348735Y32957D01*
X349346Y34431D01*
X357500D01*
Y29500D01*
X368500D01*
Y46500D01*
X357500D01*
Y41569D01*
X349346D01*
X348735Y43043D01*
X347132Y45132D01*
X345043Y46735D01*
X342611Y47743D01*
X340000Y48086D01*
D02*
G37*
G36*
X222000D02*
X219389Y47743D01*
X216957Y46735D01*
X214868Y45132D01*
X213265Y43043D01*
X212687Y41648D01*
X211313D01*
X210735Y43043D01*
X209132Y45132D01*
X207043Y46735D01*
X204611Y47743D01*
X202000Y48086D01*
X199389Y47743D01*
X196957Y46735D01*
X194868Y45132D01*
X193265Y43043D01*
X192687Y41648D01*
X191313D01*
X190735Y43043D01*
X189132Y45132D01*
X187043Y46735D01*
X184611Y47743D01*
X182000Y48086D01*
X179389Y47743D01*
X176957Y46735D01*
X174868Y45132D01*
X173265Y43043D01*
X172257Y40610D01*
X171914Y38000D01*
X172257Y35389D01*
X173265Y32957D01*
X174868Y30868D01*
X176957Y29265D01*
X179389Y28257D01*
X182000Y27914D01*
X184611Y28257D01*
X187043Y29265D01*
X189132Y30868D01*
X190735Y32957D01*
X191313Y34352D01*
X192687D01*
X193265Y32957D01*
X194868Y30868D01*
X196957Y29265D01*
X199389Y28257D01*
X202000Y27914D01*
X204611Y28257D01*
X207043Y29265D01*
X209132Y30868D01*
X210735Y32957D01*
X211313Y34352D01*
X212687D01*
X213265Y32957D01*
X214868Y30868D01*
X216957Y29265D01*
X219389Y28257D01*
X222000Y27914D01*
X224611Y28257D01*
X227043Y29265D01*
X229132Y30868D01*
X230735Y32957D01*
X231346Y34431D01*
X239500D01*
Y29500D01*
X250500D01*
Y46500D01*
X239500D01*
Y41569D01*
X231346D01*
X230735Y43043D01*
X229132Y45132D01*
X227043Y46735D01*
X224611Y47743D01*
X222000Y48086D01*
D02*
G37*
G36*
X388500Y46500D02*
X377500D01*
Y29500D01*
X388500D01*
Y46500D01*
D02*
G37*
G36*
X270500D02*
X259500D01*
Y29500D01*
X270500D01*
Y46500D01*
D02*
G37*
G36*
X908600Y83604D02*
X903343Y83190D01*
X898216Y81959D01*
X893344Y79941D01*
X888848Y77186D01*
X884839Y73761D01*
X881414Y69752D01*
X878659Y65256D01*
X876641Y60384D01*
X875410Y55257D01*
X874996Y50000D01*
X875410Y44743D01*
X876641Y39616D01*
X878659Y34744D01*
X881414Y30248D01*
X884839Y26239D01*
X888848Y22814D01*
X893344Y20059D01*
X898216Y18041D01*
X903343Y16810D01*
X908600Y16396D01*
X913857Y16810D01*
X918984Y18041D01*
X923856Y20059D01*
X928352Y22814D01*
X932361Y26239D01*
X935786Y30248D01*
X938541Y34744D01*
X940559Y39616D01*
X941790Y44743D01*
X942204Y50000D01*
X941790Y55257D01*
X940559Y60384D01*
X938541Y65256D01*
X935786Y69752D01*
X932361Y73761D01*
X928352Y77186D01*
X923856Y79941D01*
X918984Y81959D01*
X913857Y83190D01*
X908600Y83604D01*
D02*
G37*
%LPD*%
G36*
X879003Y464003D02*
X851003D01*
Y518003D01*
X879003D01*
Y464003D01*
D02*
G37*
G36*
X781000Y464000D02*
X753000D01*
Y518000D01*
X781000D01*
Y464000D01*
D02*
G37*
G36*
X769500Y188494D02*
X769500Y186000D01*
X768401Y185588D01*
X736133D01*
X735951Y185710D01*
X734000Y186098D01*
X732049Y185710D01*
X731867Y185588D01*
X726599D01*
X725500Y186000D01*
X725500Y186858D01*
Y189392D01*
X768602D01*
X769500Y188494D01*
D02*
G37*
G36*
X654500D02*
X654500Y186000D01*
X653401Y185588D01*
X621133D01*
X620951Y185710D01*
X619000Y186098D01*
X617049Y185710D01*
X616867Y185588D01*
X611599D01*
X610500Y186000D01*
X610500Y186858D01*
Y189392D01*
X653602D01*
X654500Y188494D01*
D02*
G37*
G36*
X539500D02*
X539500Y186000D01*
X538401Y185588D01*
X506133D01*
X505951Y185710D01*
X504000Y186098D01*
X502049Y185710D01*
X501867Y185588D01*
X496599D01*
X495500Y186000D01*
X495500Y186858D01*
Y189392D01*
X538602D01*
X539500Y188494D01*
D02*
G37*
G36*
X499686Y320430D02*
Y300373D01*
X468177Y268864D01*
X467000Y269098D01*
X465049Y268710D01*
X463395Y267605D01*
X462290Y265951D01*
X461902Y264000D01*
X462290Y262049D01*
X463395Y260395D01*
X465049Y259290D01*
X467000Y258902D01*
X468951Y259290D01*
X470605Y260395D01*
X471710Y262049D01*
X471963Y263320D01*
X472093Y263407D01*
X503513Y294827D01*
X504686Y294341D01*
Y291373D01*
X470628Y257314D01*
X442000D01*
X440732Y257061D01*
X439657Y256343D01*
X430628Y247314D01*
X426707D01*
X426181Y248584D01*
X498513Y320916D01*
X499686Y320430D01*
D02*
G37*
G36*
X149686Y129204D02*
Y120373D01*
X139628Y110314D01*
X136451D01*
X135735Y112043D01*
X134132Y114132D01*
X132043Y115735D01*
X130648Y116313D01*
Y117687D01*
X132043Y118265D01*
X134132Y119868D01*
X135735Y121957D01*
X136451Y123686D01*
X141000D01*
X142268Y123939D01*
X143343Y124657D01*
X148416Y129730D01*
X149686Y129204D01*
D02*
G37*
G36*
X156686Y116381D02*
Y107373D01*
X139628Y90314D01*
X136451D01*
X135735Y92043D01*
X134132Y94132D01*
X132043Y95735D01*
X130648Y96313D01*
Y97687D01*
X132043Y98265D01*
X134132Y99868D01*
X135735Y101957D01*
X136451Y103686D01*
X141000D01*
X142268Y103939D01*
X143343Y104657D01*
X155343Y116657D01*
X155416Y116767D01*
X156686Y116381D01*
D02*
G37*
D10*
X0Y11000D02*
Y889000D01*
Y11000D02*
X11000Y0D01*
X949000D01*
X960000Y11000D01*
Y889000D01*
X949000Y900000D02*
X960000Y889000D01*
X11000Y900000D02*
X949000D01*
X0Y889000D02*
X11000Y900000D01*
D12*
X299000Y151250D02*
Y161000D01*
X299000Y151250D02*
X299000Y151250D01*
X181000Y151250D02*
Y161000D01*
X742000Y724000D02*
Y733750D01*
X742000Y733750D01*
X893000Y768000D02*
Y777250D01*
X488000Y471000D02*
Y491750D01*
X461800Y520230D02*
X462000Y520430D01*
Y529000D01*
X117976Y711000D02*
X118000Y710976D01*
X339000Y335000D02*
X359000D01*
X377000Y353000D01*
Y400000D01*
X429000Y461000D02*
Y541000D01*
X423000Y455000D02*
X429000Y461000D01*
X414000Y556000D02*
X429000Y541000D01*
X538000Y426000D02*
X559000D01*
X620000Y487000D01*
X565000Y421000D02*
X718700Y574700D01*
X538000Y421000D02*
X565000D01*
X718700Y574700D02*
Y692850D01*
X368000Y426000D02*
X423000D01*
X344000Y402000D02*
X368000Y426000D01*
X344000Y390000D02*
Y402000D01*
X242400Y233400D02*
X253000Y244000D01*
X432000D02*
X442000Y254000D01*
X416000Y256000D02*
X422665Y262665D01*
X229700Y237700D02*
X242000Y250000D01*
X422911D02*
X498000Y325089D01*
X253000Y244000D02*
X432000D01*
X204150Y230150D02*
X230000Y256000D01*
X416000D01*
X242000Y250000D02*
X422911D01*
X400000Y145161D02*
Y217000D01*
X238000Y552000D02*
Y571000D01*
X236000Y550000D02*
X238000Y552000D01*
X217000Y286000D02*
X345000D01*
X147000Y216000D02*
X217000Y286000D01*
X147000Y133000D02*
Y216000D01*
X345000Y286000D02*
X351000Y292000D01*
X282000Y157000D02*
Y217000D01*
Y143000D02*
Y157000D01*
X680300Y736300D02*
Y749700D01*
X680600Y750000D01*
X680000Y736000D02*
X680300Y736300D01*
X389839Y135000D02*
X400000Y145161D01*
X469750Y265750D02*
X503000Y299000D01*
X469697Y265750D02*
X469750D01*
X467947Y264000D02*
X469697Y265750D01*
X467000Y264000D02*
X467947D01*
X229700Y192150D02*
Y237700D01*
X204150Y192300D02*
Y230150D01*
X360700Y135300D02*
Y148700D01*
X360400Y135000D02*
X360700Y135300D01*
Y148700D02*
X361000Y149000D01*
X242700Y135300D02*
Y148700D01*
X242400Y135000D02*
X242700Y135300D01*
Y148700D02*
X243000Y149000D01*
X422665Y262665D02*
Y262665D01*
X431000Y271000D01*
X498000Y325089D02*
Y356000D01*
X442000Y254000D02*
X472000D01*
X508000Y290000D02*
Y356000D01*
X472000Y254000D02*
X508000Y290000D01*
X503000Y299000D02*
Y356000D01*
X522000Y365000D02*
X543000D01*
X518000Y356000D02*
Y362536D01*
X521053Y365000D02*
X521464D01*
X520053Y364000D02*
X521053Y365000D01*
X519464Y364000D02*
X520053D01*
X518000Y362536D02*
X519464Y364000D01*
X518000Y356000D02*
X518000Y356000D01*
X543000Y365000D02*
X557000Y351000D01*
Y332000D02*
Y351000D01*
X384000Y350000D02*
Y397000D01*
X368000Y316000D02*
Y334000D01*
X384000Y350000D01*
X405840Y316000D02*
Y335160D01*
X391000Y350000D02*
X405840Y335160D01*
X391000Y350000D02*
Y395000D01*
X427000Y326000D02*
Y331000D01*
X398000Y360000D02*
Y393000D01*
Y360000D02*
X427000Y331000D01*
Y316000D02*
Y325000D01*
X591000Y416000D02*
X603000Y404000D01*
X737000D01*
X538000Y416000D02*
X591000D01*
X538000Y411000D02*
X586000D01*
X644000Y353000D01*
Y339000D02*
Y353000D01*
X382000Y484000D02*
Y490000D01*
X412000Y436000D02*
X423000D01*
X382000Y466000D02*
Y484000D01*
Y466000D02*
X412000Y436000D01*
X464000Y307904D02*
Y341000D01*
X431000Y283000D02*
X437662Y289662D01*
X445758D01*
X464000Y307904D01*
X414000Y556000D02*
Y556000D01*
X423000Y451000D02*
Y455000D01*
X503000Y471000D02*
Y491750D01*
X503000Y491750D01*
X496000Y484000D02*
Y495000D01*
X498000Y471000D02*
Y482000D01*
X496000Y484000D02*
X498000Y482000D01*
X508000Y482044D02*
X510000Y484044D01*
Y498000D01*
X496000Y495000D02*
X514000Y513000D01*
X518000Y471000D02*
X561000D01*
X574000Y484000D02*
Y586000D01*
X561000Y471000D02*
X574000Y484000D01*
X316000Y658000D02*
X443000D01*
X426000Y697000D02*
X522943Y600057D01*
X309000Y704000D02*
X316000Y697000D01*
X426000D01*
X313000Y735000D02*
X325000D01*
X309000Y731000D02*
X313000Y735000D01*
X309000Y704000D02*
Y731000D01*
X350000Y752000D02*
X387000D01*
X522943Y600057D02*
X559943D01*
X387000Y752000D02*
X529000Y610000D01*
X563000D01*
X443000Y658000D02*
X514000Y587000D01*
Y513000D02*
Y587000D01*
X517000Y504000D02*
X535000D01*
X517000Y504000D02*
X517000Y504000D01*
X529250Y488000D02*
X545000D01*
X513000Y480268D02*
X520732Y488000D01*
X545000D01*
X508000Y471000D02*
Y482044D01*
X753000Y685000D02*
Y750000D01*
X732000Y664000D02*
X753000Y685000D01*
X374000Y135000D02*
X389839D01*
X274000D02*
X282000Y143000D01*
X254000Y135000D02*
X274000D01*
X168000Y140000D02*
Y194000D01*
X191000Y217000D01*
X445000Y499000D02*
Y547000D01*
Y499000D02*
X458000Y486000D01*
X368000Y624000D02*
X445000Y547000D01*
X288000Y624000D02*
X368000D01*
X437000Y498000D02*
Y544000D01*
X249000Y615000D02*
X366000D01*
X437000Y544000D01*
X217000Y192150D02*
X229700D01*
X693300Y692850D02*
X706000D01*
X538000Y376000D02*
X558000D01*
X538000Y381000D02*
X562000D01*
X538000Y386000D02*
X566000D01*
X538000Y391000D02*
X570000D01*
X538000Y396000D02*
X574000D01*
X538000Y401000D02*
X578000D01*
X538000Y406000D02*
X582000D01*
X578000Y401000D02*
X628000Y351000D01*
X582000Y406000D02*
X636000Y352000D01*
X598000Y320000D02*
Y363000D01*
X590000Y320000D02*
Y362000D01*
X582000Y320000D02*
Y361000D01*
X574000Y320000D02*
Y360000D01*
X412000Y490000D02*
Y509000D01*
X382000Y490000D02*
Y509000D01*
X412000Y444904D02*
Y490000D01*
X422750Y441250D02*
X423000Y441000D01*
X415654Y441250D02*
X422750D01*
X412000Y444904D02*
X415654Y441250D01*
X344000Y441400D02*
X354400Y431000D01*
X423000D01*
X344000Y441400D02*
Y459900D01*
Y371000D02*
Y390000D01*
X423000Y426000D02*
X423000Y426000D01*
X127000Y87000D02*
X141000D01*
X160000Y106000D01*
X127000Y107000D02*
X127000Y107000D01*
X141000D01*
X153000Y119000D01*
X127000Y127000D02*
X141000D01*
X147000Y133000D01*
X473000Y518730D02*
Y527000D01*
X437000Y498000D02*
X453000Y482000D01*
X412947Y376000D02*
X423000D01*
X408947Y372000D02*
X412947Y376000D01*
X408000Y372000D02*
X408947D01*
X467750Y471250D02*
Y500250D01*
X462500Y505500D02*
Y519530D01*
Y505500D02*
X467750Y500250D01*
X474500Y528500D02*
X475000Y529000D01*
X473000Y527000D02*
X474500Y528500D01*
X473000Y471000D02*
Y518730D01*
X513000Y471000D02*
Y480268D01*
X242400Y192150D02*
Y233400D01*
X375000Y278000D02*
X388840Y291840D01*
X405000Y270000D02*
X427000Y292000D01*
X227000Y270000D02*
X405000D01*
X222000Y278000D02*
X375000D01*
X160000Y203000D02*
X227000Y270000D01*
X153000Y209000D02*
X222000Y278000D01*
X347700Y192150D02*
X347850Y192300D01*
X620000Y320000D02*
Y332000D01*
Y350000D01*
X636000Y320000D02*
Y332000D01*
Y352000D01*
X644000Y320000D02*
Y339000D01*
X628000Y320000D02*
Y339000D01*
Y351000D01*
X570000Y391000D02*
X598000Y363000D01*
X513000Y471000D02*
X513000Y471000D01*
X558000Y376000D02*
X574000Y360000D01*
X562000Y381000D02*
X582000Y361000D01*
X566000Y386000D02*
X590000Y362000D01*
X574000Y396000D02*
X620000Y350000D01*
X345000Y735000D02*
Y747000D01*
X350000Y752000D01*
X680600Y582600D02*
Y692850D01*
X620000Y522000D02*
X680600Y582600D01*
X553000Y447000D02*
X586000Y480000D01*
X538000Y441000D02*
X547000D01*
X706000Y584000D02*
Y692850D01*
X586000Y480000D02*
Y587000D01*
X553000Y447000D02*
Y447000D01*
Y431000D02*
X706000Y584000D01*
X547000Y441000D02*
X553000Y447000D01*
X538000Y431000D02*
X553000D01*
X559943Y600057D02*
X574000Y586000D01*
X563000Y610000D02*
X586000Y587000D01*
X233000Y631000D02*
X249000Y615000D01*
X281000Y631000D02*
X288000Y624000D01*
X233000Y631000D02*
Y647000D01*
X453000Y471000D02*
Y482000D01*
X458000Y471000D02*
Y486000D01*
X281000Y631000D02*
Y647000D01*
X467750Y471250D02*
X468000Y471000D01*
X461800Y520230D02*
X462500Y519530D01*
X441670Y462670D02*
X443000Y464000D01*
Y471000D02*
X443000Y471000D01*
X443000Y464000D02*
Y471000D01*
X538000Y451000D02*
X538000Y451000D01*
X528000Y451000D02*
X538000D01*
X528000Y451000D02*
X528000Y451000D01*
X427000Y316000D02*
X444000D01*
X160000Y106000D02*
Y203000D01*
X351000Y292000D02*
Y300000D01*
X388840Y291840D02*
Y300000D01*
X427000Y292000D02*
Y300000D01*
X453000Y356000D02*
X453000Y356000D01*
X453000Y356000D02*
Y366000D01*
X453000Y366000D02*
X453000Y366000D01*
X423000Y391000D02*
X433000D01*
X406000Y401000D02*
X423000D01*
X398000Y393000D02*
X406000Y401000D01*
X377000Y400000D02*
X393000Y416000D01*
X423000D01*
X402000Y406000D02*
X423000D01*
X391000Y395000D02*
X402000Y406000D01*
X384000Y397000D02*
X398000Y411000D01*
X423000D01*
X443000Y356000D02*
X443000Y356000D01*
X443000Y341000D02*
Y356000D01*
X443000Y341000D02*
X443000Y341000D01*
X281000Y710999D02*
X281001Y711000D01*
X500000Y520330D02*
Y529000D01*
X499900Y520230D02*
X500000Y520330D01*
X474500Y520230D02*
Y528500D01*
X473000Y518730D02*
X474500Y520230D01*
X330000Y316000D02*
Y326000D01*
X339000Y335000D01*
X153000Y119000D02*
Y209000D01*
X127000Y87000D02*
X127750Y87750D01*
X388840Y316000D02*
X388840Y316000D01*
X405840D01*
X351000Y316000D02*
X351000Y316000D01*
X368000D01*
X313000Y316000D02*
X313000Y316000D01*
X330000D01*
D15*
X771000Y440000D02*
D03*
X831000D02*
D03*
D16*
X351000Y300000D02*
D03*
Y316000D02*
D03*
X535000Y504000D02*
D03*
Y488000D02*
D03*
X769000Y654000D02*
D03*
Y638000D02*
D03*
X769000Y604000D02*
D03*
Y620000D02*
D03*
X794000Y638000D02*
D03*
Y654000D02*
D03*
X330000Y300000D02*
D03*
Y316000D02*
D03*
X368000Y300000D02*
D03*
Y316000D02*
D03*
X405840Y300000D02*
D03*
Y316000D02*
D03*
X444000Y300000D02*
D03*
Y316000D02*
D03*
X233000Y647000D02*
D03*
Y663000D02*
D03*
X281000Y647000D02*
D03*
Y663000D02*
D03*
X313000Y316000D02*
D03*
X388840D02*
D03*
Y300000D02*
D03*
X427000Y316000D02*
D03*
Y300000D02*
D03*
X313000D02*
D03*
D17*
X398000Y484000D02*
D03*
X382000D02*
D03*
X396000Y467000D02*
D03*
X412000D02*
D03*
X803000Y563000D02*
D03*
X787000D02*
D03*
X835000D02*
D03*
X819000D02*
D03*
X842000Y480000D02*
D03*
X826000D02*
D03*
D18*
X382000Y505000D02*
D03*
X412000D02*
D03*
D19*
X600000Y195000D02*
D03*
Y151000D02*
D03*
X550000Y195000D02*
D03*
Y151000D02*
D03*
X830000Y195000D02*
D03*
Y151000D02*
D03*
X435000Y195000D02*
D03*
Y151000D02*
D03*
X485000Y195000D02*
D03*
Y151000D02*
D03*
X780000Y195000D02*
D03*
Y151000D02*
D03*
X665000D02*
D03*
Y195000D02*
D03*
X715000Y151000D02*
D03*
Y195000D02*
D03*
D20*
X620000Y320000D02*
D03*
X644000D02*
D03*
X628000D02*
D03*
X636000D02*
D03*
X620000Y302000D02*
D03*
X644000D02*
D03*
X628000D02*
D03*
X636000D02*
D03*
X574000Y320000D02*
D03*
X598000D02*
D03*
X582000D02*
D03*
X590000D02*
D03*
X574000Y302000D02*
D03*
X598000D02*
D03*
X582000D02*
D03*
X590000D02*
D03*
D21*
X383000Y38000D02*
D03*
X363000D02*
D03*
X658000Y847000D02*
D03*
X678000D02*
D03*
X265000Y38000D02*
D03*
X245000D02*
D03*
D22*
X299000Y174000D02*
D03*
Y151250D02*
D03*
X384000D02*
D03*
Y174000D02*
D03*
X657000Y711000D02*
D03*
Y733750D02*
D03*
X742000D02*
D03*
Y711000D02*
D03*
X266000Y174000D02*
D03*
Y151250D02*
D03*
X181000D02*
D03*
Y174000D02*
D03*
X893000Y777250D02*
D03*
Y800000D02*
D03*
X117976Y711000D02*
D03*
Y733750D02*
D03*
X233000Y733750D02*
D03*
Y711000D02*
D03*
X281001Y733750D02*
D03*
Y711000D02*
D03*
D23*
X360400Y135000D02*
D03*
X347700D02*
D03*
X335000D02*
D03*
X322300D02*
D03*
X360400Y192150D02*
D03*
X347700D02*
D03*
X335000D02*
D03*
X322300D02*
D03*
X680600Y750000D02*
D03*
X693300D02*
D03*
X706000D02*
D03*
X718700D02*
D03*
X680600Y692850D02*
D03*
X693300D02*
D03*
X706000D02*
D03*
X718700D02*
D03*
X242400Y135000D02*
D03*
X229700D02*
D03*
X217000D02*
D03*
X204300D02*
D03*
X242400Y192150D02*
D03*
X229700D02*
D03*
X217000D02*
D03*
X204300D02*
D03*
X499900Y520230D02*
D03*
X487200D02*
D03*
X474500D02*
D03*
X461800D02*
D03*
X499900Y577380D02*
D03*
X487200D02*
D03*
X474500D02*
D03*
X461800D02*
D03*
D24*
X423000Y386000D02*
D03*
Y381000D02*
D03*
Y441000D02*
D03*
Y436000D02*
D03*
Y376000D02*
D03*
Y431000D02*
D03*
Y426000D02*
D03*
X538000Y381000D02*
D03*
Y386000D02*
D03*
Y391000D02*
D03*
Y396000D02*
D03*
Y401000D02*
D03*
Y406000D02*
D03*
Y411000D02*
D03*
Y416000D02*
D03*
Y376000D02*
D03*
Y426000D02*
D03*
Y421000D02*
D03*
Y431000D02*
D03*
Y436000D02*
D03*
Y441000D02*
D03*
Y451000D02*
D03*
Y446000D02*
D03*
X423000Y451000D02*
D03*
Y411000D02*
D03*
Y416000D02*
D03*
Y446000D02*
D03*
Y421000D02*
D03*
Y406000D02*
D03*
Y391000D02*
D03*
Y401000D02*
D03*
Y396000D02*
D03*
D25*
X344000Y459900D02*
D03*
Y371000D02*
D03*
D26*
X443000Y356000D02*
D03*
X508000Y471000D02*
D03*
X503000D02*
D03*
X493000D02*
D03*
X488000D02*
D03*
X513000D02*
D03*
X488000Y356000D02*
D03*
X493000D02*
D03*
X483000D02*
D03*
X473000D02*
D03*
X448000D02*
D03*
X453000D02*
D03*
X458000D02*
D03*
X463000D02*
D03*
X468000D02*
D03*
X478000D02*
D03*
X513000D02*
D03*
X503000D02*
D03*
X508000D02*
D03*
X518000D02*
D03*
X483000Y471000D02*
D03*
X478000D02*
D03*
X473000D02*
D03*
X468000D02*
D03*
X463000D02*
D03*
X443000D02*
D03*
X453000D02*
D03*
X448000D02*
D03*
X458000D02*
D03*
X518000D02*
D03*
X498000Y356000D02*
D03*
Y471000D02*
D03*
D27*
X851000Y587375D02*
D03*
Y635000D02*
D03*
D56*
X118000Y699000D02*
Y710976D01*
X675000Y263000D02*
Y343000D01*
X643500Y231500D02*
X675000Y263000D01*
X389957Y231500D02*
X643500D01*
X675000Y343000D02*
X690550Y358550D01*
X379000Y225000D02*
X653000D01*
X686000Y258000D01*
X695150Y333150D02*
X705760D01*
X686000Y324000D02*
X695150Y333150D01*
X686000Y258000D02*
Y324000D01*
X690550Y358550D02*
X705760D01*
X157000Y240000D02*
X217000Y300000D01*
X313000D01*
X807000Y633000D02*
Y663000D01*
X803000Y629000D02*
X807000Y633000D01*
X786000Y629000D02*
X803000D01*
X777994Y637006D02*
X786000Y629000D01*
X633000Y626000D02*
X671000Y664000D01*
X633000Y560000D02*
Y626000D01*
X322000Y192450D02*
Y231000D01*
X335000Y192150D02*
Y231000D01*
X360000Y192550D02*
Y231000D01*
X653000Y737750D02*
X657000Y733750D01*
X653000Y737750D02*
Y743000D01*
X747000Y631000D02*
Y655000D01*
X765000Y673000D02*
X784000D01*
X747000Y655000D02*
X765000Y673000D01*
X270000Y142000D02*
Y147250D01*
X266000Y151250D02*
X270000Y147250D01*
X388000Y142000D02*
Y147250D01*
X384000Y151250D02*
X388000Y147250D01*
X360000Y192550D02*
X360400Y192150D01*
X322000Y192450D02*
X322300Y192150D01*
X335000D02*
X347700D01*
X204150Y192300D02*
X204300Y192150D01*
X181000Y174000D02*
Y188000D01*
X185150Y192150D01*
X204300D01*
X348350Y83651D02*
X349000Y83001D01*
X347700Y135000D02*
X348350Y134350D01*
X329000Y83001D02*
Y86518D01*
X335000Y92518D01*
X384000Y176995D02*
Y188000D01*
X335000Y92518D02*
Y135000D01*
X348350Y83651D02*
Y134350D01*
X303150Y192150D02*
X322300D01*
X360400D02*
X379850D01*
X299000Y174000D02*
Y188000D01*
X303150Y192150D01*
X379850D02*
X384000Y188000D01*
X340000Y38000D02*
X363000D01*
X574000Y302000D02*
X574000Y302000D01*
X582000Y302000D02*
X582000Y302000D01*
X598000Y302000D02*
X598000Y302000D01*
X574000Y290000D02*
Y302000D01*
X582000Y283000D02*
Y302000D01*
X598000Y283000D02*
Y302000D01*
X620000Y290000D02*
Y302000D01*
X636000Y290000D02*
Y302000D01*
X644000Y283000D02*
Y302000D01*
X628000Y302000D02*
X628000Y302000D01*
X590000Y302000D02*
X590000Y302000D01*
X628000Y283000D02*
Y302000D01*
X590000Y290000D02*
Y302000D01*
X678000Y847000D02*
X701000D01*
X222000Y38000D02*
X245000D01*
X777000Y638000D02*
X777994Y637006D01*
X777994D01*
X769000Y638000D02*
X777000D01*
X784000Y673000D02*
X794000Y663000D01*
X758000Y620000D02*
X769000D01*
X747000Y631000D02*
X758000Y620000D01*
X769000Y589000D02*
Y604000D01*
X782000Y576000D02*
X794000D01*
X769000Y589000D02*
X782000Y576000D01*
X771800Y662809D02*
X780809D01*
X769000Y654000D02*
Y660009D01*
X771800Y662809D01*
X780809D02*
X781000Y663000D01*
X281000D02*
Y710999D01*
X233000Y663000D02*
Y711000D01*
X266000Y176995D02*
Y188000D01*
X261850Y192150D02*
X266000Y188000D01*
X242400Y192150D02*
X261850D01*
X230350Y83651D02*
Y134350D01*
Y83651D02*
X231000Y83001D01*
X229700Y135000D02*
X230350Y134350D01*
X211000Y83001D02*
Y86518D01*
X217000Y92518D01*
Y135000D01*
X657000Y697000D02*
Y708005D01*
Y697000D02*
X661150Y692850D01*
X680600D01*
X742000Y697000D02*
Y711000D01*
X737850Y692850D02*
X742000Y697000D01*
X718700Y692850D02*
X737850D01*
X692650Y750650D02*
X693300Y750000D01*
X692650Y750650D02*
Y801349D01*
X692000Y801999D02*
X692650Y801349D01*
X706000Y750000D02*
Y792482D01*
X712000Y798482D01*
Y801999D01*
D57*
X865000Y513000D02*
Y523000D01*
X716000Y533000D02*
X855000D01*
X865000Y523000D01*
X844000Y416000D02*
X874000Y446000D01*
X721000Y416000D02*
X844000D01*
X807000Y663000D02*
X843000D01*
X850000Y656000D01*
Y636000D02*
Y656000D01*
Y636000D02*
X851000Y635000D01*
X874000Y446000D02*
Y469000D01*
X830000Y119000D02*
Y151000D01*
X780000Y119000D02*
Y151000D01*
X758000Y638000D02*
X769000D01*
X758000Y638000D02*
X758000Y638000D01*
X438400Y732600D02*
X546000Y625000D01*
X546250D01*
X438400Y732600D02*
Y733000D01*
X842000Y480000D02*
X856000D01*
X856000Y502000D02*
X856000Y502000D01*
X794000Y654000D02*
Y663000D01*
X819000Y563000D02*
X819000Y563000D01*
X819000Y563000D02*
Y571000D01*
X778000Y563000D02*
X787000D01*
X799000Y181000D02*
X849000D01*
X734000D02*
X799000D01*
X684000D02*
X734000D01*
X619000D02*
X684000D01*
X569000D02*
X619000D01*
X504000D02*
X569000D01*
X454000D02*
X504000D01*
X715000Y119000D02*
Y151000D01*
X665000Y119000D02*
Y151000D01*
X600000Y119000D02*
Y151000D01*
X550000Y119000D02*
Y151000D01*
X485000Y119000D02*
Y151000D01*
X435000Y119000D02*
Y151000D01*
D58*
X831000Y440000D02*
X844000D01*
X856000Y452000D01*
Y469000D01*
X383000Y83000D02*
X410000Y110000D01*
Y187835D01*
X417165Y195000D01*
X368747Y82748D02*
X368999Y83000D01*
X383000D01*
X258000Y61000D02*
X361000D01*
X368747Y68747D02*
Y82748D01*
X361000Y61000D02*
X368747Y68747D01*
X251000Y68000D02*
X258000Y61000D01*
X847000Y733000D02*
X933575D01*
X794000Y680000D02*
X847000Y733000D01*
X794000Y663000D02*
Y680000D01*
X417165Y195000D02*
X435000D01*
X900000Y124200D02*
Y175000D01*
X830000Y195000D02*
X880000D01*
X900000Y175000D01*
X780000Y195000D02*
X830000D01*
X715000D02*
X780000D01*
X665000D02*
X715000D01*
X600000D02*
X665000D01*
X550000D02*
X600000D01*
X485000D02*
X550000D01*
X435000D02*
X485000D01*
X251000Y68000D02*
Y83001D01*
X813000Y847000D02*
X840000Y820000D01*
X774000Y847000D02*
X813000D01*
X754000Y827000D02*
X774000Y847000D01*
X681000Y827000D02*
X754000D01*
X672000Y818000D02*
X681000Y827000D01*
X672000Y801999D02*
Y818000D01*
D59*
X830000Y60000D02*
D03*
X715000D02*
D03*
X600000D02*
D03*
X485000D02*
D03*
X900000Y175000D02*
D03*
X789200Y820000D02*
D03*
X330000D02*
D03*
X279200D02*
D03*
X380800D02*
D03*
X114200D02*
D03*
X215800D02*
D03*
X165000D02*
D03*
X174000Y556000D02*
D03*
Y356000D02*
D03*
D60*
X779200Y60000D02*
D03*
X664200D02*
D03*
X549200D02*
D03*
X434200D02*
D03*
X840000Y820000D02*
D03*
D61*
X900000Y124200D02*
D03*
D62*
X616200Y733000D02*
D03*
D63*
Y860000D02*
D03*
X540000D02*
D03*
X438400D02*
D03*
D64*
Y733000D02*
D03*
D65*
X309000Y83001D02*
D03*
X329000D02*
D03*
X349000D02*
D03*
X340000Y38000D02*
D03*
X300000D02*
D03*
X320000D02*
D03*
X127000Y67000D02*
D03*
Y127000D02*
D03*
Y107000D02*
D03*
Y87000D02*
D03*
X721000Y847000D02*
D03*
X741000D02*
D03*
X701000D02*
D03*
X202000Y38000D02*
D03*
X182000D02*
D03*
X222000D02*
D03*
X732000Y801999D02*
D03*
X712000D02*
D03*
X692000D02*
D03*
X191000Y83001D02*
D03*
X211000D02*
D03*
X231000D02*
D03*
X40000Y742000D02*
D03*
Y762000D02*
D03*
X325000Y735000D02*
D03*
X365000D02*
D03*
Y715000D02*
D03*
X345000Y735000D02*
D03*
Y715000D02*
D03*
D66*
X369000Y83001D02*
D03*
X672000Y801999D02*
D03*
X251000Y83001D02*
D03*
X325000Y715000D02*
D03*
D67*
X705760Y333150D02*
D03*
Y307750D02*
D03*
Y358550D02*
D03*
D68*
Y383950D02*
D03*
D69*
X933575Y733000D02*
D03*
X778000D02*
D03*
D70*
X127000Y147000D02*
D03*
X40000Y722000D02*
D03*
D71*
X344000Y440800D02*
D03*
Y390000D02*
D03*
D72*
X922317Y656000D02*
D03*
Y244000D02*
D03*
X36317D02*
D03*
Y656000D02*
D03*
X51300Y88100D02*
D03*
X908600Y850100D02*
D03*
X51300Y824700D02*
D03*
X908600Y50000D02*
D03*
D73*
X299000Y161000D02*
D03*
X181000D02*
D03*
X742000Y724000D02*
D03*
X893000Y768000D02*
D03*
X250000Y750000D02*
D03*
X910000Y750000D02*
D03*
X924999Y600000D02*
D03*
Y540000D02*
D03*
Y480000D02*
D03*
Y420000D02*
D03*
X910000Y390000D02*
D03*
X924999Y360000D02*
D03*
X910000Y330000D02*
D03*
X924999Y300000D02*
D03*
Y180000D02*
D03*
Y120000D02*
D03*
X910000Y90000D02*
D03*
X880000Y690000D02*
D03*
X895000Y540000D02*
D03*
Y480000D02*
D03*
Y420000D02*
D03*
Y360000D02*
D03*
Y300000D02*
D03*
X880000Y150000D02*
D03*
Y90000D02*
D03*
X850000Y870000D02*
D03*
X865000Y840000D02*
D03*
X850000Y690000D02*
D03*
X865000Y420000D02*
D03*
X850000Y330000D02*
D03*
Y270000D02*
D03*
Y90000D02*
D03*
X865000Y60000D02*
D03*
X850000Y30000D02*
D03*
X820000Y870000D02*
D03*
X835000Y840000D02*
D03*
X820000Y390000D02*
D03*
X835000Y360000D02*
D03*
X820000Y330000D02*
D03*
X835000Y300000D02*
D03*
X820000Y90000D02*
D03*
Y30000D02*
D03*
X790000Y870000D02*
D03*
Y510000D02*
D03*
Y390000D02*
D03*
X805000Y360000D02*
D03*
Y300000D02*
D03*
X790000Y90000D02*
D03*
X805000Y60000D02*
D03*
X790000Y30000D02*
D03*
X760000Y870000D02*
D03*
Y390000D02*
D03*
X775000Y360000D02*
D03*
Y240000D02*
D03*
X760000Y90000D02*
D03*
Y30000D02*
D03*
X730000Y870000D02*
D03*
Y390000D02*
D03*
X745000Y240000D02*
D03*
X730000Y90000D02*
D03*
X745000Y60000D02*
D03*
X730000Y30000D02*
D03*
X700000Y870000D02*
D03*
Y510000D02*
D03*
X715000Y480000D02*
D03*
X700000Y450000D02*
D03*
Y90000D02*
D03*
Y30000D02*
D03*
X670000Y870000D02*
D03*
Y510000D02*
D03*
X685000Y480000D02*
D03*
X670000Y450000D02*
D03*
X685000Y420000D02*
D03*
Y240000D02*
D03*
Y60000D02*
D03*
X670000Y30000D02*
D03*
X640000Y690000D02*
D03*
X655000Y660000D02*
D03*
Y600000D02*
D03*
Y480000D02*
D03*
X640000Y450000D02*
D03*
X655000Y420000D02*
D03*
X640000Y390000D02*
D03*
X655000Y360000D02*
D03*
Y300000D02*
D03*
X640000Y90000D02*
D03*
Y30000D02*
D03*
X610000Y750000D02*
D03*
X625000Y600000D02*
D03*
X610000Y570000D02*
D03*
X625000Y540000D02*
D03*
X610000Y510000D02*
D03*
Y450000D02*
D03*
X625000Y420000D02*
D03*
X610000Y330000D02*
D03*
Y270000D02*
D03*
Y90000D02*
D03*
X625000Y60000D02*
D03*
X610000Y30000D02*
D03*
X595000Y600000D02*
D03*
Y540000D02*
D03*
Y240000D02*
D03*
X580000Y90000D02*
D03*
Y30000D02*
D03*
X550000Y570000D02*
D03*
X565000Y540000D02*
D03*
X550000Y510000D02*
D03*
X565000Y240000D02*
D03*
X550000Y30000D02*
D03*
X520000Y750000D02*
D03*
Y690000D02*
D03*
X535000Y660000D02*
D03*
X520000Y630000D02*
D03*
X535000Y240000D02*
D03*
X520000Y90000D02*
D03*
Y30000D02*
D03*
X490000Y750000D02*
D03*
X505000Y720000D02*
D03*
Y240000D02*
D03*
Y60000D02*
D03*
X490000Y30000D02*
D03*
X460000Y750000D02*
D03*
Y690000D02*
D03*
Y90000D02*
D03*
Y30000D02*
D03*
X430000Y630000D02*
D03*
Y30000D02*
D03*
X400000Y690000D02*
D03*
X415000Y600000D02*
D03*
X400000Y570000D02*
D03*
X415000Y60000D02*
D03*
X400000Y30000D02*
D03*
X370000Y570000D02*
D03*
Y210000D02*
D03*
X385000Y60000D02*
D03*
X355000Y600000D02*
D03*
X340000Y570000D02*
D03*
Y510000D02*
D03*
X310000Y690000D02*
D03*
X325000Y600000D02*
D03*
X310000Y570000D02*
D03*
Y510000D02*
D03*
X325000Y480000D02*
D03*
X310000Y450000D02*
D03*
X325000Y420000D02*
D03*
X310000Y390000D02*
D03*
X325000Y360000D02*
D03*
X310000Y210000D02*
D03*
X295000Y600000D02*
D03*
X280000Y570000D02*
D03*
X295000Y540000D02*
D03*
X280000Y510000D02*
D03*
Y450000D02*
D03*
Y390000D02*
D03*
Y330000D02*
D03*
Y30000D02*
D03*
X250000Y690000D02*
D03*
Y630000D02*
D03*
X265000Y600000D02*
D03*
X250000Y570000D02*
D03*
X265000Y540000D02*
D03*
X250000Y510000D02*
D03*
X265000Y480000D02*
D03*
X250000Y450000D02*
D03*
X265000Y420000D02*
D03*
X250000Y390000D02*
D03*
X265000Y360000D02*
D03*
X250000Y330000D02*
D03*
Y210000D02*
D03*
X220000Y690000D02*
D03*
Y630000D02*
D03*
X235000Y600000D02*
D03*
X220000Y570000D02*
D03*
X235000Y540000D02*
D03*
X220000Y510000D02*
D03*
X235000Y480000D02*
D03*
X220000Y450000D02*
D03*
X235000Y420000D02*
D03*
X220000Y390000D02*
D03*
X235000Y360000D02*
D03*
X220000Y330000D02*
D03*
X190000Y750000D02*
D03*
Y690000D02*
D03*
Y630000D02*
D03*
X205000Y600000D02*
D03*
X190000Y570000D02*
D03*
X205000Y540000D02*
D03*
X190000Y510000D02*
D03*
X205000Y480000D02*
D03*
X190000Y450000D02*
D03*
X205000Y420000D02*
D03*
Y300000D02*
D03*
X160000Y750000D02*
D03*
Y690000D02*
D03*
Y630000D02*
D03*
X175000Y600000D02*
D03*
X160000Y570000D02*
D03*
Y510000D02*
D03*
X175000Y480000D02*
D03*
X160000Y450000D02*
D03*
X175000Y420000D02*
D03*
Y300000D02*
D03*
X160000Y270000D02*
D03*
Y30000D02*
D03*
X130000Y690000D02*
D03*
Y630000D02*
D03*
X145000Y600000D02*
D03*
X130000Y570000D02*
D03*
X145000Y540000D02*
D03*
X130000Y510000D02*
D03*
X145000Y480000D02*
D03*
X130000Y450000D02*
D03*
X145000Y420000D02*
D03*
X130000Y390000D02*
D03*
Y330000D02*
D03*
X145000Y300000D02*
D03*
X130000Y270000D02*
D03*
X145000Y240000D02*
D03*
X130000Y210000D02*
D03*
X100000Y630000D02*
D03*
X115000Y600000D02*
D03*
X100000Y570000D02*
D03*
X115000Y540000D02*
D03*
X100000Y510000D02*
D03*
X115000Y480000D02*
D03*
X100000Y450000D02*
D03*
X115000Y420000D02*
D03*
X100000Y390000D02*
D03*
X115000Y360000D02*
D03*
X100000Y330000D02*
D03*
X115000Y300000D02*
D03*
X100000Y270000D02*
D03*
X115000Y240000D02*
D03*
X100000Y30000D02*
D03*
X70000Y870000D02*
D03*
Y690000D02*
D03*
X85000Y660000D02*
D03*
X70000Y630000D02*
D03*
X85000Y600000D02*
D03*
X70000Y570000D02*
D03*
X85000Y540000D02*
D03*
X70000Y510000D02*
D03*
X85000Y480000D02*
D03*
X70000Y450000D02*
D03*
X85000Y420000D02*
D03*
X70000Y390000D02*
D03*
X85000Y360000D02*
D03*
X70000Y330000D02*
D03*
X85000Y300000D02*
D03*
X70000Y270000D02*
D03*
X85000Y240000D02*
D03*
X70000Y210000D02*
D03*
X85000Y180000D02*
D03*
Y60000D02*
D03*
X70000Y30000D02*
D03*
X40000Y870000D02*
D03*
X55000Y780000D02*
D03*
Y600000D02*
D03*
X40000Y570000D02*
D03*
X55000Y540000D02*
D03*
X40000Y510000D02*
D03*
X55000Y480000D02*
D03*
X40000Y450000D02*
D03*
X55000Y420000D02*
D03*
X40000Y390000D02*
D03*
X55000Y360000D02*
D03*
X40000Y330000D02*
D03*
X55000Y300000D02*
D03*
Y180000D02*
D03*
X40000Y150000D02*
D03*
Y30000D02*
D03*
X553000Y365000D02*
D03*
X752000Y434000D02*
D03*
Y447000D02*
D03*
X858000Y571000D02*
D03*
X845000D02*
D03*
X719000Y736000D02*
D03*
X322000Y149000D02*
D03*
X204000D02*
D03*
X191000Y204000D02*
D03*
X460000Y600000D02*
D03*
X488000Y501000D02*
D03*
Y491750D02*
D03*
X462000Y529000D02*
D03*
X118000Y699000D02*
D03*
X422000Y475000D02*
D03*
X439000Y485000D02*
D03*
X644000Y339000D02*
D03*
X628000Y339000D02*
D03*
X636000Y332000D02*
D03*
X620000D02*
D03*
X598000Y339000D02*
D03*
X590000Y332000D02*
D03*
X582000Y339000D02*
D03*
X574000Y332000D02*
D03*
X620000Y487000D02*
D03*
X340000Y293000D02*
D03*
X357000Y286000D02*
D03*
X394000D02*
D03*
X544000Y290000D02*
D03*
X519000Y332000D02*
D03*
X450000Y326000D02*
D03*
X417000Y360000D02*
D03*
X360000Y263000D02*
D03*
X250000D02*
D03*
X220000Y231000D02*
D03*
X400000Y217000D02*
D03*
X390000Y231500D02*
D03*
X379000Y225000D02*
D03*
X157000Y240000D02*
D03*
X400000Y157000D02*
D03*
X282000D02*
D03*
X680000Y736000D02*
D03*
X467000Y264000D02*
D03*
X457000Y271000D02*
D03*
X361000Y149000D02*
D03*
X243000D02*
D03*
X431000Y271000D02*
D03*
X393000Y441000D02*
D03*
X403000Y456000D02*
D03*
X408000Y392000D02*
D03*
X443000Y382000D02*
D03*
X507000Y373000D02*
D03*
X494000Y395000D02*
D03*
X480000D02*
D03*
X505000Y454000D02*
D03*
X457000D02*
D03*
X522000Y436000D02*
D03*
X476000Y285000D02*
D03*
X557000Y332000D02*
D03*
X721000Y416000D02*
D03*
X427000Y326000D02*
D03*
X406000D02*
D03*
X368000D02*
D03*
X330000D02*
D03*
X582000Y655000D02*
D03*
X562000Y721000D02*
D03*
X807000Y663000D02*
D03*
X737000Y404000D02*
D03*
X633000Y560000D02*
D03*
X671000Y664000D02*
D03*
X464000Y341000D02*
D03*
X431000Y283000D02*
D03*
X322000Y231000D02*
D03*
X335000D02*
D03*
X360000D02*
D03*
X414000Y556000D02*
D03*
X503000Y491750D02*
D03*
X510000Y498000D02*
D03*
X316000Y658000D02*
D03*
X517000Y504000D02*
D03*
X545000Y488000D02*
D03*
X716000Y533000D02*
D03*
X653000Y743000D02*
D03*
X732000Y664000D02*
D03*
X753000Y750000D02*
D03*
X379000Y416000D02*
D03*
X403000Y475000D02*
D03*
X282000Y143000D02*
D03*
Y217000D02*
D03*
X270000Y142000D02*
D03*
X254000Y135000D02*
D03*
X374000D02*
D03*
X388000Y142000D02*
D03*
X191000Y217000D02*
D03*
X168000Y140000D02*
D03*
X830000Y119000D02*
D03*
X780000D02*
D03*
X383000Y38000D02*
D03*
X582000Y283000D02*
D03*
X598000D02*
D03*
X644000D02*
D03*
X574000Y290000D02*
D03*
X620000D02*
D03*
X636000D02*
D03*
X628000Y283000D02*
D03*
X590000Y290000D02*
D03*
X758000Y638000D02*
D03*
X546250Y625000D02*
D03*
X620000Y522000D02*
D03*
X794000Y576000D02*
D03*
X781000Y663000D02*
D03*
X794000D02*
D03*
X819000Y571000D02*
D03*
X778000Y563000D02*
D03*
X849000Y181000D02*
D03*
X799000D02*
D03*
X734000D02*
D03*
X684000D02*
D03*
X619000D02*
D03*
X569000D02*
D03*
X504000D02*
D03*
X454000D02*
D03*
X658000Y847000D02*
D03*
X265000Y38000D02*
D03*
X439000Y462000D02*
D03*
X715000Y119000D02*
D03*
X665000D02*
D03*
X600000D02*
D03*
X550000D02*
D03*
X485000D02*
D03*
X435000D02*
D03*
X528000Y451000D02*
D03*
X522000Y365000D02*
D03*
X453000Y366000D02*
D03*
X433000Y391000D02*
D03*
X443000Y341000D02*
D03*
X408000Y372000D02*
D03*
X500000Y529000D02*
D03*
X475000D02*
D03*
X856000Y513000D02*
D03*
Y491000D02*
D03*
Y502000D02*
D03*
Y469000D02*
D03*
X874000Y513000D02*
D03*
Y491000D02*
D03*
Y502000D02*
D03*
Y469000D02*
D03*
X856000Y480000D02*
D03*
X874000D02*
D03*
X865000Y513000D02*
D03*
Y491000D02*
D03*
Y502000D02*
D03*
Y469000D02*
D03*
Y480000D02*
D03*
X758000Y513000D02*
D03*
Y491000D02*
D03*
Y502000D02*
D03*
Y469000D02*
D03*
X776000Y513000D02*
D03*
Y491000D02*
D03*
Y502000D02*
D03*
Y469000D02*
D03*
X758000Y480000D02*
D03*
X776000D02*
D03*
X767000Y513000D02*
D03*
Y491000D02*
D03*
Y502000D02*
D03*
Y469000D02*
D03*
Y480000D02*
D03*
X797000Y618500D02*
D03*
X804000D02*
D03*
X811000D02*
D03*
X790000D02*
D03*
X811000Y605500D02*
D03*
X804000D02*
D03*
X800000Y612000D02*
D03*
X797000Y605500D02*
D03*
X811000Y612000D02*
D03*
X790000Y605500D02*
D03*
Y612000D02*
D03*
M02*
