G04*
G04 #@! TF.GenerationSoftware,Altium Limited,Altium Designer,22.5.1 (42)*
G04*
G04 Layer_Color=128*
%FSLAX44Y44*%
%MOMM*%
G71*
G04*
G04 #@! TF.SameCoordinates,C65D4A69-D674-4943-BDF1-1C6FB35B3B05*
G04*
G04*
G04 #@! TF.FilePolarity,Positive*
G04*
G01*
G75*
%ADD10C,0.2000*%
%ADD15R,2.0000X2.4000*%
%ADD16R,0.9000X0.6000*%
%ADD17R,0.6000X0.9000*%
%ADD20R,0.4000X1.0000*%
%ADD21R,0.7000X1.3000*%
%ADD23R,0.7000X2.0000*%
%ADD74R,0.6000X0.4000*%
%ADD75R,1.0000X1.0000*%
%ADD76R,1.0000X1.0000*%
%ADD77R,2.2800X2.0300*%
%ADD78R,0.4000X0.6000*%
%ADD79R,1.2000X1.4000*%
%ADD80R,2.5000X3.5000*%
%ADD81R,2.8000X5.4000*%
%ADD82R,3.0000X2.0000*%
%ADD83R,1.4000X1.7000*%
G04:AMPARAMS|DCode=84|XSize=0.6mm|YSize=0.9mm|CornerRadius=0.15mm|HoleSize=0mm|Usage=FLASHONLY|Rotation=180.000|XOffset=0mm|YOffset=0mm|HoleType=Round|Shape=RoundedRectangle|*
%AMROUNDEDRECTD84*
21,1,0.6000,0.6000,0,0,180.0*
21,1,0.3000,0.9000,0,0,180.0*
1,1,0.3000,-0.1500,0.3000*
1,1,0.3000,0.1500,0.3000*
1,1,0.3000,0.1500,-0.3000*
1,1,0.3000,-0.1500,-0.3000*
%
%ADD84ROUNDEDRECTD84*%
%ADD85R,1.0000X1.3000*%
%ADD86R,1.0000X2.2000*%
G04:AMPARAMS|DCode=87|XSize=2.5mm|YSize=3.2mm|CornerRadius=0mm|HoleSize=0mm|Usage=FLASHONLY|Rotation=180.000|XOffset=0mm|YOffset=0mm|HoleType=Round|Shape=Octagon|*
%AMOCTAGOND87*
4,1,8,0.6250,-1.6000,-0.6250,-1.6000,-1.2500,-0.9750,-1.2500,0.9750,-0.6250,1.6000,0.6250,1.6000,1.2500,0.9750,1.2500,-0.9750,0.6250,-1.6000,0.0*
%
%ADD87OCTAGOND87*%

D10*
X0Y11000D02*
Y889000D01*
Y11000D02*
X11000Y0D01*
X949000D01*
X960000Y11000D01*
Y889000D01*
X949000Y900000D02*
X960000Y889000D01*
X11000Y900000D02*
X949000D01*
X0Y889000D02*
X11000Y900000D01*
D15*
X824000Y733000D02*
D03*
X884000D02*
D03*
D16*
X475500Y536230D02*
D03*
Y552230D02*
D03*
X351000Y316000D02*
D03*
Y300000D02*
D03*
X313000Y316000D02*
D03*
Y300000D02*
D03*
X535000Y488000D02*
D03*
Y504000D02*
D03*
X591000Y165000D02*
D03*
Y181000D02*
D03*
X609000D02*
D03*
Y165000D02*
D03*
X541000Y181000D02*
D03*
Y165000D02*
D03*
X559000D02*
D03*
Y181000D02*
D03*
X299000Y135000D02*
D03*
Y151000D02*
D03*
X821000Y181000D02*
D03*
Y165000D02*
D03*
X839000D02*
D03*
Y181000D02*
D03*
X426000D02*
D03*
Y165000D02*
D03*
X444000D02*
D03*
Y181000D02*
D03*
X476000Y165000D02*
D03*
Y181000D02*
D03*
X494000D02*
D03*
Y165000D02*
D03*
X771000Y181000D02*
D03*
Y165000D02*
D03*
X789000D02*
D03*
Y181000D02*
D03*
X427000Y300000D02*
D03*
Y316000D02*
D03*
X389000Y300000D02*
D03*
Y316000D02*
D03*
X724000Y165000D02*
D03*
X706000Y181000D02*
D03*
X117976Y727000D02*
D03*
Y711000D02*
D03*
X450702Y300000D02*
D03*
Y316000D02*
D03*
X893000Y777250D02*
D03*
Y793250D02*
D03*
X458500Y552230D02*
D03*
Y536230D02*
D03*
X581000Y696000D02*
D03*
X674000Y181000D02*
D03*
X562000Y696000D02*
D03*
X656000Y165000D02*
D03*
X724000Y181000D02*
D03*
X706000Y165000D02*
D03*
X61000Y742000D02*
D03*
Y758000D02*
D03*
X742000Y734000D02*
D03*
X181000Y151000D02*
D03*
X581000Y680000D02*
D03*
X562000D02*
D03*
X742000Y750000D02*
D03*
X181000Y135000D02*
D03*
X674000Y165000D02*
D03*
X656000Y181000D02*
D03*
X504702Y300000D02*
D03*
Y316000D02*
D03*
D17*
X743760Y362850D02*
D03*
X759760D02*
D03*
X389000Y556000D02*
D03*
X405000D02*
D03*
X372000Y135000D02*
D03*
X388000D02*
D03*
X787000Y563000D02*
D03*
X803000D02*
D03*
X819000D02*
D03*
X835000D02*
D03*
X702000D02*
D03*
X686000D02*
D03*
X718000D02*
D03*
X734000D02*
D03*
X379000Y441000D02*
D03*
X363000D02*
D03*
X379000Y390000D02*
D03*
X363000D02*
D03*
X653000Y750000D02*
D03*
X270000Y135000D02*
D03*
X669000Y750000D02*
D03*
X254000Y135000D02*
D03*
X485702Y277000D02*
D03*
X469702D02*
D03*
X487227Y321575D02*
D03*
X468177D02*
D03*
X477702Y293000D02*
D03*
X468177D02*
D03*
X431000Y353000D02*
D03*
X447000D02*
D03*
X440000Y411000D02*
D03*
X456000D02*
D03*
D20*
X644000Y320000D02*
D03*
X620000D02*
D03*
X636000D02*
D03*
X628000D02*
D03*
X644000Y302000D02*
D03*
X620000D02*
D03*
X636000D02*
D03*
X628000D02*
D03*
X598000Y320000D02*
D03*
X574000D02*
D03*
X590000D02*
D03*
X582000D02*
D03*
X598000Y302000D02*
D03*
X574000D02*
D03*
X590000D02*
D03*
X582000D02*
D03*
D21*
X382500Y38082D02*
D03*
X362500D02*
D03*
X678500Y846918D02*
D03*
X658500D02*
D03*
X244500Y38082D02*
D03*
X264500D02*
D03*
D23*
X819050Y640575D02*
D03*
X793650D02*
D03*
X780950D02*
D03*
X819050Y583425D02*
D03*
X793650D02*
D03*
X780950D02*
D03*
X806350Y640575D02*
D03*
Y583425D02*
D03*
D74*
X694000Y728000D02*
D03*
Y719000D02*
D03*
Y710000D02*
D03*
Y719000D02*
D03*
X380000Y175000D02*
D03*
Y166000D02*
D03*
X262000Y175000D02*
D03*
Y166000D02*
D03*
X380000D02*
D03*
Y157000D02*
D03*
X262000Y166000D02*
D03*
Y157000D02*
D03*
X361000Y157000D02*
D03*
Y166000D02*
D03*
X500500Y539230D02*
D03*
Y548230D02*
D03*
X148000Y138000D02*
D03*
Y147000D02*
D03*
X680000Y719000D02*
D03*
Y728000D02*
D03*
X243000Y166000D02*
D03*
Y157000D02*
D03*
D75*
X762760Y322530D02*
D03*
Y342850D02*
D03*
X740662Y332690D02*
D03*
X335000Y110000D02*
D03*
X312902Y99840D02*
D03*
Y120160D02*
D03*
X371098Y99840D02*
D03*
Y120160D02*
D03*
X349000Y110000D02*
D03*
X669902Y785160D02*
D03*
Y764840D02*
D03*
X692000Y775000D02*
D03*
X253098Y99840D02*
D03*
Y120160D02*
D03*
X231000Y110000D02*
D03*
X706000Y775000D02*
D03*
X728098Y785160D02*
D03*
Y764840D02*
D03*
X217000Y110000D02*
D03*
X194902Y99840D02*
D03*
Y120160D02*
D03*
D76*
X600000Y129000D02*
D03*
X589840Y151098D02*
D03*
X610160D02*
D03*
X589840Y194902D02*
D03*
X610160D02*
D03*
X600000Y217000D02*
D03*
X550000Y129000D02*
D03*
X539840Y151098D02*
D03*
X560160D02*
D03*
X539840Y194902D02*
D03*
X560160D02*
D03*
X550000Y217000D02*
D03*
X424840Y194902D02*
D03*
X445160D02*
D03*
X435000Y217000D02*
D03*
X830000Y129000D02*
D03*
X819840Y151098D02*
D03*
X840160D02*
D03*
X819840Y194902D02*
D03*
X840160D02*
D03*
X830000Y217000D02*
D03*
X445160Y151098D02*
D03*
X424840D02*
D03*
X435000Y129000D02*
D03*
X495160Y151098D02*
D03*
X474840D02*
D03*
X485000Y129000D02*
D03*
X474840Y194902D02*
D03*
X495160D02*
D03*
X485000Y217000D02*
D03*
X780000Y129000D02*
D03*
X769840Y151098D02*
D03*
X790160D02*
D03*
X769840Y194902D02*
D03*
X790160D02*
D03*
X780000Y217000D02*
D03*
X715000D02*
D03*
X725160Y194902D02*
D03*
X704840D02*
D03*
X665000Y217000D02*
D03*
X675160Y194902D02*
D03*
X654840D02*
D03*
X572000Y643000D02*
D03*
X561840Y665098D02*
D03*
X582160D02*
D03*
X561840Y710902D02*
D03*
X582160D02*
D03*
X572000Y733000D02*
D03*
X665000Y129000D02*
D03*
X654840Y151098D02*
D03*
X675160D02*
D03*
X715000Y129000D02*
D03*
X704840Y151098D02*
D03*
X725160D02*
D03*
D77*
X487000Y380000D02*
D03*
Y431000D02*
D03*
D78*
X522000Y373000D02*
D03*
X513000D02*
D03*
X448000D02*
D03*
X439000D02*
D03*
X522000Y454000D02*
D03*
X513000D02*
D03*
X439000D02*
D03*
X448000D02*
D03*
X439000Y391000D02*
D03*
X448000D02*
D03*
D79*
X100000Y147000D02*
D03*
Y124000D02*
D03*
D80*
X107000Y192000D02*
D03*
X151450D02*
D03*
D81*
X865000Y491000D02*
D03*
X767000D02*
D03*
D82*
X800000Y612000D02*
D03*
D83*
X520000Y733000D02*
D03*
X476000D02*
D03*
D84*
X487227Y293000D02*
D03*
D85*
X725000Y589000D02*
D03*
X695000D02*
D03*
D86*
X710000Y593500D02*
D03*
D87*
Y619000D02*
D03*
M02*
