M48
;Layer_Color=9474304
;FILE_FORMAT=4:4
METRIC,LZ
;TYPE=PLATED
T1F00S00C0.3000
T2F00S00C0.7000
T3F00S00C0.8000
T4F00S00C1.0000
T5F00S00C1.1000
T6F00S00C1.2000
T7F00S00C1.5000
T8F00S00C1.7000
T9F00S00C3.2000
%
T01
X0004Y0003
X0007
X001
X00085Y0006
X0016Y0003
X00265Y00038
X0028Y0003
X00383Y00038
X00385Y0006
X00415
X0043Y0003
X0046
X0049
X0052
X0055
X0058
Y0009
X0052
X00505Y0006
X0046Y0009
X004Y0003
X0061
X0064
X0067
X007
X0073
X0076
X0079
X0082
X0085
X00865Y0006
X0088Y0009
X0091
X0085
X0082
X0079
X0076
X0073
X007
X00685Y0006
X00745
X00805
X00625
X0064Y0009
X0061
X00665Y00119
X00715
X0078
X0083
X0088Y0015
X00849Y00181
X00799
X00734
X00684
X00685Y0024
X00745
X00775
X00805Y003
X00835
X0085Y0033
X0082
X00835Y0036
X00805
X00775
X0079Y0039
X0082
X0076
X0073
X00737Y00404
X00721Y00416
X00685Y0042
X00655
X00625
X0064Y0045
X0067
X007
X00715Y0048
X00685
X00655
X0062Y00487
X0061Y0045
X0064Y0039
X00655Y0036
X00644Y00339
X00636Y00332
X00628Y00339
X0062Y00332
X0061Y0033
X0062Y0029
X00628Y00283
X00636Y0029
X00644Y00283
X00655Y003
X0061Y0027
X00619Y00181
X00924999Y0018
Y0012
Y003
X00895
X0091Y0033
X00924999Y0036
X00895
X0091Y0039
X00924999Y0042
X00895
X00865
X00865Y00469
X00856
Y0048
X00865
X00874
Y00491
X00865
X00856
X00874Y00469
X00895Y0048
X00924999
X00776Y0048
X00767
X00758
Y00491
X00767
X00776
Y00469
X00767
X00758
X00752Y00447
Y00434
X0085Y0027
X00598Y00283
X0059Y0029
X00582Y00283
X00574Y0029
X00544
X00557Y00332
X00574
X00582Y00339
X0059Y00332
X00598Y00339
X00553Y00365
X00522
X00507Y00373
X00494Y00395
X0048
X00443Y00382
X00433Y00391
X00408Y00392
Y00372
X00417Y0036
X00453Y00366
X00443Y00341
X00464
X0045Y00326
X00427
X00406
X00368
X0033
X00325Y0036
X0031Y0039
X0028
X0025
X0022
X00235Y0042
X00265
X0028Y0045
X0031
X00325Y0048
Y0042
X00379Y00416
X00393Y00441
X00403Y00456
Y00475
X00422
X00439Y00485
Y00462
X00457Y00454
X00505
X00528Y00451
X00522Y00436
X00503Y0049175
X00488
X00545Y00488
X00519Y00332
X00476Y00285
X00467Y00264
X00457Y00271
X00431
Y00283
X00394Y00286
X00357
X0034Y00293
X0036Y00263
Y00231
X00379Y00225
X0039Y002315
X004Y00217
X0037Y0021
X00335Y00231
X00322
X0031Y0021
X00282Y00217
X0025Y0021
X0022Y00231
X0025Y00263
X0025Y0033
X0028
X00265Y0036
X00235
X0022Y0033
X00205Y003
Y0042
X0022Y0045
X0025
X00265Y0048
X00235
X00205
X00204Y00149
X00243
X00254Y00135
X0027Y00142
X00282Y00143
Y00157
X00299Y00161
X00322Y00149
X00361
X00374Y00135
X00388Y00142
X004Y00157
X00435Y00119
X00485
X0055
X006
X00569Y00181
X00565Y0024
X00595
X00535
X00505
X00504Y00181
X00454
X00191Y00204
Y00217
X00157Y0024
X00145Y0024
X00115
X00085
X001Y0027
X0013
X0016
X00175Y003
X00145
X00115
X00085
X00055
X0007Y0033
X001
X0013
X00115Y0036
X00085
X00055
X0007Y0039
X001
X0013
X00145Y0042
X00175
X0019Y0045
X0016
X0013
X001
X0007
X0004
X00055Y0048
X00085
X00115
X00145
X00175
X00115Y0042
X00085
X00055
X0004Y0039
Y0033
X0007Y0027
Y0021
X00085Y0018
X00055
X0004Y0015
X00168Y0014
X00181Y00161
X0013Y0021
Y0051
X0016
X0019
Y0057
X0016
X0013
X001
X0007
X0004
X00055Y006
X00085
X00115
X00145
X00175
X0019Y0063
X0016
X0013
X001
X0007
X00085Y0066
X0007Y0069
X00118Y00699
X0013Y0069
X0016
X0019
Y0075
X0016
X00055Y0078
X0007Y0087
X0004
X00055Y0054
X00085
X00115
X00145
X001Y0051
X0007
X0004
X0022
X0025
X0028
X0031
X0034
Y0057
X0037
X004
X00414Y00556
X00415Y006
X0043Y0063
X0046Y006
X00462Y00529
X00475
X005
X00488Y00501
X0051Y00498
X00517Y00504
X0055Y0051
X00565Y0054
X00595
Y006
X00582Y00655
X00535Y0066
X0052Y0069
X00505Y0072
X0052Y0075
X0049
X0046
Y0069
X004
X0031
X00316Y00658
X00325Y006
X00355
X00295
X00265
X00235
X00205
X0022Y0063
X0025
Y0069
X0022
X0025Y0075
X0025Y0057
X0028
X0031
X00295Y0054
X00265
X00235
X00205
X0022Y0057
X0055
X0054625Y00625
X0052Y0063
X00562Y00721
X0061Y0075
X00653Y00743
X0068Y00736
X00719
X00742Y00724
X00753Y0075
X00732Y00664
X00781Y00663
X00794
X00807
X00804Y006185
X00797
X0079
Y00612
Y006055
X00797
X00804
X00811
Y00612
Y006185
X008Y00612
X00794Y00576
X00778Y00563
X00819Y00571
X00845
X00858
X00856Y00513
X00865
X00874
Y00502
X00865
X00856
X0079Y0051
X00776Y00513
X00767
X00758
Y00502
X00767
X00776
X007Y0051
X0067
X0061
X0062Y00522
X00625Y0054
X00633Y0056
X0061Y0057
X00625Y006
X00655
Y0066
X00671Y00664
X0064Y0069
X00758Y00638
X0085Y0069
X0088
X0091Y0075
X00893Y00768
X00865Y0084
X00835
X0085Y0087
X0082
X0079
X0076
X0073
X007
X0067
X00658Y00847
X00716Y00533
X00895Y0054
X00924999
Y006
T02
X00344Y0039
Y004408
T03
X00127Y00067
Y00087
X00191Y00083001
X00182Y00038
X00202
X00222
X00231Y00083001
X00211
X00251
X00309
X00329
X00349
X00369
X0034Y00038
X0032
X003
X00127Y00107
Y00127
Y00147
X0004Y00722
Y00742
Y00762
X00325Y00735
Y00715
X00345
X00365
Y00735
X00345
X00672Y00801999
X00692
X00712
X00732
X00741Y00847
X00721
X00701
T04
X0070576Y0030775
Y0033315
Y0035855
Y0038395
X004384Y00733
X006162
T05
X004342Y0006
X00485
X005492
X006
X006642
X00715
X007792
X0083
X009Y001242
Y00175
X00165Y0082
X001142
X002158
X002792
X0033
X003808
X007892
X0084
T06
X00174Y00356
Y00556
T07
X004384Y0086
X0054
X006162
T08
X00778Y00733
X00933575
T09
X000513Y000881
X009086Y0005
X00922317Y00244
X00036317
Y00656
X000513Y008247
X009086Y008501
X00922317Y00656
M30
